<?xml version="1.0" encoding="UTF-8"?>
<svg width="90px" height="85px" viewBox="0 0 90 85" version="1.1" xmlns="http://www.w3.org/2000/svg" xmlns:xlink="http://www.w3.org/1999/xlink">
    <!-- Generator: Sketch 47.1 (45422) - http://www.bohemiancoding.com/sketch -->
    <title>digital-technologies-forum</title>
    <desc>Created with Sketch.</desc>
    <defs></defs>
    <g id="Главная" stroke="none" stroke-width="1" fill="none" fill-rule="evenodd">
        <g id="Group-34" transform="translate(-881.000000, 0.000000)">
            <g id="digital-technologies-forum" transform="translate(881.000000, 0.000000)">
                <rect id="Rectangle-4-Copy-2" fill="#FFFFFF" x="0" y="0" width="90" height="85" rx="1.69811321"></rect>
                <rect id="Rectangle-11" fill="#1C6EB0" x="-8.5975671e-13" y="10" width="90" height="21"></rect>
                <path d="M10.78,14.1 C14.061,14.1 16.56,16.684 16.56,20.05 C16.56,23.416 14.061,26 10.78,26 L6.02,26 L6.02,14.1 L10.78,14.1 Z M10.78,23.382 C12.65,23.382 13.942,22.09 13.942,20.05 C13.942,18.01 12.65,16.718 10.78,16.718 L8.74,16.718 L8.74,23.382 L10.78,23.382 Z M18.09,14.1 L18.09,26 L20.81,26 L20.81,14.1 L18.09,14.1 Z M34.631,19.37 L28.664,19.37 L28.664,21.75 L31.843,21.75 C31.418,22.889 30.381,23.586 28.8,23.586 C26.488,23.586 25.06,22.107 25.06,20.084 C25.06,17.993 26.556,16.514 28.562,16.514 C29.905,16.514 30.976,17.126 31.469,17.908 L33.781,16.582 C32.778,14.984 30.857,13.862 28.579,13.862 C25.077,13.862 22.34,16.616 22.34,20.067 C22.34,23.484 25.026,26.238 28.766,26.238 C32.098,26.238 34.631,24.028 34.631,20.39 L34.631,19.37 Z M36.161,14.1 L36.161,26 L38.881,26 L38.881,14.1 L36.161,14.1 Z M48.911,14.1 L40.071,14.1 L40.071,16.718 L43.131,16.718 L43.131,26 L45.851,26 L45.851,16.718 L48.911,16.718 L48.911,14.1 Z M57.666,26 L57.071,24.13 L52.651,24.13 L52.056,26 L49.081,26 L53.127,14.1 L56.595,14.1 L60.641,26 L57.666,26 Z M53.467,21.58 L56.255,21.58 L54.861,17.211 L53.467,21.58 Z M64.381,23.382 L64.381,14.1 L61.661,14.1 L61.661,26 L68.631,26 L68.631,23.382 L64.381,23.382 Z" id="DIGITAL" fill="#FFFFFF"></path>
                <path d="M8.73062797,45.4659003 L8.73062797,39.0487531 L11.0600374,39.0487531 L11.0600374,38.2372169 L5.49951172,38.2372169 L5.49951172,39.0487531 L7.82892111,39.0487531 L7.82892111,45.4659003 L8.73062797,45.4659003 Z M16.9912647,44.6543641 L13.4144942,44.6543641 L13.4144942,42.1696608 L16.8059139,42.1696608 L16.8059139,41.3681435 L13.4144942,41.3681435 L13.4144942,39.0487531 L16.9912647,39.0487531 L16.9912647,38.2372169 L12.5127873,38.2372169 L12.5127873,45.4659003 L16.9912647,45.4659003 L16.9912647,44.6543641 Z M21.5949792,45.6362227 C22.3631037,45.6362227 23.0118252,45.4383501 23.5411632,45.042599 C24.0705011,44.6468479 24.3952793,44.116683 24.5155075,43.4520883 L23.5987722,43.4520883 C23.4852234,43.8695473 23.2489451,44.1993349 22.8899304,44.4414611 C22.5309157,44.6835873 22.0992696,44.8046486 21.5949792,44.8046486 C20.9003275,44.8046486 20.3492899,44.5391487 19.9418499,44.0081409 C19.53441,43.477133 19.3306931,42.7591144 19.3306931,41.8540633 C19.3306931,40.9456726 19.5335751,40.2259842 19.9393452,39.6949764 C20.3451153,39.1639686 20.895318,38.8984686 21.5899697,38.8984686 C22.0875808,38.8984686 22.5167222,39.0345582 22.8774067,39.3067415 C23.2380913,39.5789247 23.478544,39.9487878 23.5987722,40.4163419 L24.5155075,40.4163419 C24.408638,39.7183505 24.0846947,39.1522846 23.5436679,38.7181273 C23.0026411,38.2839699 22.3514149,38.0668945 21.5899697,38.0668945 C20.6081062,38.0668945 19.8316442,38.4058661 19.2605603,39.0838195 C18.6894765,39.7617729 18.4039388,40.6851782 18.4039388,41.8540633 C18.4039388,43.0196088 18.6903114,43.9413444 19.2630651,44.6192977 C19.8358188,45.2972511 20.6131157,45.6362227 21.5949792,45.6362227 Z M31.859409,45.4659003 L31.859409,38.2372169 L30.9577021,38.2372169 L30.9577021,41.3631341 L26.9901919,41.3631341 L26.9901919,38.2372169 L26.0884851,38.2372169 L26.0884851,45.4659003 L26.9901919,45.4659003 L26.9901919,42.1746702 L30.9577021,42.1746702 L30.9577021,45.4659003 L31.859409,45.4659003 Z M34.6547002,45.4659003 L34.6547002,39.8602893 L34.734852,39.8602893 L38.6572768,45.4659003 L39.5339363,45.4659003 L39.5339363,38.2372169 L38.6422484,38.2372169 L38.6422484,43.8628659 L38.5620966,43.8628659 L34.6396718,38.2372169 L33.7630123,38.2372169 L33.7630123,45.4659003 L34.6547002,45.4659003 Z M44.4782955,38.0668945 C45.5069144,38.0668945 46.3151029,38.4075359 46.9028851,39.088829 C47.4906673,39.770122 47.784554,40.6901878 47.784554,41.8490539 C47.784554,43.0045803 47.4915022,43.9246461 46.9053898,44.6092788 C46.3192775,45.2939115 45.5102541,45.6362227 44.4782955,45.6362227 C43.4429973,45.6362227 42.6306343,45.2939115 42.0411823,44.6092788 C41.4517302,43.9246461 41.1570086,43.0045803 41.1570086,41.8490539 C41.1570086,40.6868481 41.4550698,39.7659474 42.0512012,39.0863242 C42.6473326,38.406701 43.456356,38.0668945 44.4782955,38.0668945 Z M44.4782955,38.8984686 C43.7435678,38.8984686 43.1608038,39.1639686 42.7299861,39.6949764 C42.2991685,40.2259842 42.0837629,40.9440028 42.0837629,41.8490539 C42.0837629,42.7440859 42.2949939,43.4604347 42.7174624,43.9981219 C43.1399309,44.535809 43.7268694,44.8046486 44.4782955,44.8046486 C45.2197027,44.8046486 45.8016317,44.535809 46.2241002,43.9981219 C46.6465687,43.4604347 46.8577998,42.7440859 46.8577998,41.8490539 C46.8577998,40.9440028 46.6457338,40.2259842 46.2215955,39.6949764 C45.7974572,39.1639686 45.216363,38.8984686 44.4782955,38.8984686 Z M53.7959331,44.6543641 L50.3093332,44.6543641 L50.3093332,38.2372169 L49.4076264,38.2372169 L49.4076264,45.4659003 L53.7959331,45.4659003 L53.7959331,44.6543641 Z M58.3345243,38.0668945 C59.3631432,38.0668945 60.1713316,38.4075359 60.7591139,39.088829 C61.3468961,39.770122 61.6407828,40.6901878 61.6407828,41.8490539 C61.6407828,43.0045803 61.347731,43.9246461 60.7616186,44.6092788 C60.1755062,45.2939115 59.3664829,45.6362227 58.3345243,45.6362227 C57.2992261,45.6362227 56.4868631,45.2939115 55.897411,44.6092788 C55.307959,43.9246461 55.0132374,43.0045803 55.0132374,41.8490539 C55.0132374,40.6868481 55.3112986,39.7659474 55.90743,39.0863242 C56.5035614,38.406701 57.3125848,38.0668945 58.3345243,38.0668945 Z M58.3345243,38.8984686 C57.5997965,38.8984686 57.0170326,39.1639686 56.5862149,39.6949764 C56.1553972,40.2259842 55.9399916,40.9440028 55.9399916,41.8490539 C55.9399916,42.7440859 56.1512227,43.4604347 56.5736912,43.9981219 C56.9961597,44.535809 57.5830982,44.8046486 58.3345243,44.8046486 C59.0759314,44.8046486 59.6578605,44.535809 60.080329,43.9981219 C60.5027975,43.4604347 60.7140285,42.7440859 60.7140285,41.8490539 C60.7140285,40.9440028 60.5019626,40.2259842 60.0778242,39.6949764 C59.6536859,39.1639686 59.0725918,38.8984686 58.3345243,38.8984686 Z M69.3303385,42.670609 L69.3303385,41.7889401 L66.3997912,41.7889401 L66.3997912,42.5804383 L68.4336412,42.5804383 L68.4336412,42.7557702 C68.4336412,43.3669301 68.2340988,43.8611941 67.835008,44.238577 C67.4359172,44.61596 66.9124315,44.8046486 66.2645352,44.8046486 C65.5398264,44.8046486 64.9662464,44.5399836 64.543778,44.0106456 C64.1213095,43.4813076 63.9100784,42.7607843 63.9100784,41.8490539 C63.9100784,40.9506822 64.1229793,40.2343333 64.5487874,39.6999858 C64.9745956,39.1656384 65.544836,38.8984686 66.2595257,38.8984686 C66.7972129,38.8984686 67.2447222,39.0253743 67.6020671,39.2791893 C67.9594119,39.5330044 68.214893,39.9037024 68.3685179,40.3912944 L69.2852532,40.3912944 C69.155006,39.673265 68.8185391,39.1063642 68.2758425,38.6905751 C67.7331458,38.274786 67.0610469,38.0668945 66.2595257,38.0668945 C65.2709829,38.0668945 64.4778228,38.4117105 63.8800215,39.1013527 C63.2822203,39.7909949 62.9833241,40.7068861 62.9833241,41.8490539 C62.9833241,43.0045803 63.2797156,43.9246461 63.8725073,44.6092788 C64.465299,45.2939115 65.2609639,45.6362227 66.2595257,45.6362227 C67.1846148,45.6362227 67.9276806,45.3648784 68.4887455,44.8221818 C69.0498103,44.2794851 69.3303385,43.5623014 69.3303385,42.670609 Z M71.8851746,45.4659003 L71.8851746,38.2372169 L70.9834678,38.2372169 L70.9834678,45.4659003 L71.8851746,45.4659003 Z M78.2672554,44.6543641 L74.6904849,44.6543641 L74.6904849,42.1696608 L78.0819046,42.1696608 L78.0819046,41.3681435 L74.6904849,41.3681435 L74.6904849,39.0487531 L78.2672554,39.0487531 L78.2672554,38.2372169 L73.788778,38.2372169 L73.788778,45.4659003 L78.2672554,45.4659003 L78.2672554,44.6543641 Z M79.6148062,43.5773254 C79.6615616,44.201844 79.9295663,44.7011174 80.4188282,45.0751606 C80.9080901,45.4492039 81.5351041,45.6362227 82.2998889,45.6362227 C83.1281275,45.6362227 83.785198,45.4400199 84.2711203,45.0476085 C84.7570425,44.6551971 85,44.1267019 85,43.4621073 C85,42.9310994 84.8371934,42.5086373 84.5115755,42.1947082 C84.1859575,41.880779 83.6491133,41.6303074 82.9010268,41.4432858 L82.1445949,41.2429065 C81.6469838,41.115999 81.2904792,40.9640462 81.0750704,40.7870436 C80.8596616,40.610041 80.7519588,40.3796071 80.7519588,40.095735 C80.7519588,39.7283711 80.8980672,39.4344844 81.1902885,39.214066 C81.4825098,38.9936477 81.869071,38.8834402 82.3499837,38.8834402 C82.8008394,38.8834402 83.1707025,38.9878034 83.4595841,39.1965328 C83.7484657,39.4052623 83.9246308,39.6949745 83.9880845,40.0656781 L84.8948009,40.0656781 C84.8580645,39.4812355 84.6042532,39.0019998 84.1333595,38.6279566 C83.6624658,38.2539133 83.078032,38.0668945 82.3800406,38.0668945 C81.6152558,38.0668945 80.9982607,38.2564181 80.5290368,38.6354708 C80.0598129,39.0145235 79.8252045,39.5112923 79.8252045,40.1257919 C79.8252045,40.6401013 79.9738177,41.0517097 80.2710485,41.3606293 C80.5682792,41.669549 81.0441753,41.907497 81.698751,42.0744806 L82.6255053,42.3149357 C83.1231164,42.4385036 83.4888049,42.6021451 83.7225819,42.805865 C83.956359,43.009585 84.0732457,43.2650661 84.0732457,43.5723159 C84.0732457,43.9296607 83.9137788,44.2260522 83.5948401,44.461499 C83.2759015,44.6969459 82.8726422,44.8146675 82.3850501,44.8146675 C81.8707407,44.8146675 81.4466087,44.7027902 81.1126415,44.4790322 C80.7786744,44.2552742 80.5833065,43.9547083 80.5265321,43.5773254 L79.6148062,43.5773254 Z M6.85207201,57.5906697 L6.85207201,54.4597431 L10.0531314,54.4597431 L10.0531314,53.6582259 L6.85207201,53.6582259 L6.85207201,51.1735225 L10.3386719,51.1735225 L10.3386719,50.3619864 L5.95036515,50.3619864 L5.95036515,57.5906697 L6.85207201,57.5906697 Z M14.9223484,50.191664 C15.9509673,50.191664 16.7591558,50.5323054 17.346938,51.2135984 C17.9347202,51.8948914 18.2286069,52.8149572 18.2286069,53.9738233 C18.2286069,55.1293497 17.9355551,56.0494155 17.3494427,56.7340482 C16.7633303,57.4186809 15.954307,57.7609921 14.9223484,57.7609921 C13.8870502,57.7609921 13.0746872,57.4186809 12.4852352,56.7340482 C11.8957831,56.0494155 11.6010615,55.1293497 11.6010615,53.9738233 C11.6010615,52.8116175 11.8991227,51.8907169 12.4952541,51.2110937 C13.0913855,50.5314705 13.9004089,50.191664 14.9223484,50.191664 Z M14.9223484,51.0232381 C14.1876206,51.0232381 13.6048567,51.288738 13.174039,51.8197458 C12.7432214,52.3507536 12.5278158,53.0687723 12.5278158,53.9738233 C12.5278158,54.8688553 12.7390468,55.5852042 13.1615153,56.1228913 C13.5839838,56.6605785 14.1709223,56.929418 14.9223484,56.929418 C15.6637555,56.929418 16.2456846,56.6605785 16.6681531,56.1228913 C17.0906216,55.5852042 17.3018526,54.8688553 17.3018526,53.9738233 C17.3018526,53.0687723 17.0897867,52.3507536 16.6656484,51.8197458 C16.24151,51.288738 15.6604159,51.0232381 14.9223484,51.0232381 Z M20.7533861,51.1635036 L20.7533861,53.928738 L22.5317524,53.928738 C22.9959668,53.928738 23.3541412,53.8093465 23.6062864,53.57056 C23.8584317,53.3317734 23.9845024,52.9902971 23.9845024,52.5461208 C23.9845024,52.1119634 23.8525873,51.7729918 23.5887533,51.5291958 C23.3249192,51.2853998 22.9592306,51.1635036 22.4916766,51.1635036 L20.7533861,51.1635036 Z M20.7533861,54.7302552 L20.7533861,57.5906697 L19.8516793,57.5906697 L19.8516793,50.3619864 L22.6119042,50.3619864 C23.3098955,50.3619864 23.8684473,50.5581891 24.2875761,50.9506006 C24.7067049,51.343012 24.9162661,51.8648279 24.9162661,52.5160639 C24.9162661,53.0203543 24.7876907,53.4561749 24.530536,53.8235388 C24.2733813,54.1909027 23.9177115,54.4463838 23.4635162,54.5899897 L25.1366834,57.5906697 L24.0796825,57.5906697 L22.5317524,54.7302552 L20.7533861,54.7302552 Z M27.541235,50.3619864 L26.6395281,50.3619864 L26.6395281,55.1059664 C26.6395281,55.8774305 26.8941743,56.5127935 27.4034742,57.0120745 C27.9127742,57.5113554 28.6149296,57.7609921 29.5099616,57.7609921 C30.4083333,57.7609921 31.1113237,57.5113554 31.6189538,57.0120745 C32.1265839,56.5127935 32.3803952,55.8774305 32.3803952,55.1059664 L32.3803952,50.3619864 L31.4786883,50.3619864 L31.4786883,55.0458526 C31.4786883,55.5902191 31.3075327,56.0402331 30.9652163,56.3959081 C30.6229,56.7515832 30.1378199,56.929418 29.5099616,56.929418 C28.885443,56.929418 28.4011979,56.7515832 28.0572117,56.3959081 C27.7132255,56.0402331 27.541235,55.5902191 27.541235,55.0458526 L27.541235,50.3619864 Z M41.4325301,57.5906697 L41.4325301,50.3619864 L40.3855483,50.3619864 L37.9108639,56.3433086 L37.8307122,56.3433086 L35.3560278,50.3619864 L34.3090459,50.3619864 L34.3090459,57.5906697 L35.150639,57.5906697 L35.150639,52.0702199 L35.2107528,52.0702199 L37.4900674,57.5405749 L38.2515087,57.5405749 L40.5308233,52.0702199 L40.5909371,52.0702199 L40.5909371,57.5906697 L41.4325301,57.5906697 Z" id="TECHNOLOGIES-FORUM" fill="#2B2A29" opacity="0.849999964"></path>
            </g>
        </g>
    </g>
</svg>