<?xml version="1.0" encoding="UTF-8"?>
<svg width="90px" height="85px" viewBox="0 0 90 85" version="1.1" xmlns="http://www.w3.org/2000/svg" xmlns:xlink="http://www.w3.org/1999/xlink">
    <!-- Generator: Sketch 47.1 (45422) - http://www.bohemiancoding.com/sketch -->
    <title>diy-household</title>
    <desc>Created with Sketch.</desc>
    <defs></defs>
    <g id="Главная" stroke="none" stroke-width="1" fill="none" fill-rule="evenodd">
        <g id="Group-34" transform="translate(-441.000000, 0.000000)">
            <g id="diy-household" transform="translate(441.000000, 0.000000)">
                <rect id="Rectangle-4-Copy-2" fill="#FFFFFF" x="0" y="0" width="90" height="85" rx="1.69811321"></rect>
                <rect id="Rectangle-11" fill="#E17F38" x="0" y="10" width="90" height="21"></rect>
                <path d="M10.78,14.1 C14.061,14.1 16.56,16.684 16.56,20.05 C16.56,23.416 14.061,26 10.78,26 L6.02,26 L6.02,14.1 L10.78,14.1 Z M10.78,23.382 C12.65,23.382 13.942,22.09 13.942,20.05 C13.942,18.01 12.65,16.718 10.78,16.718 L8.74,16.718 L8.74,23.382 L10.78,23.382 Z M18.09,14.1 L18.09,26 L20.81,26 L20.81,14.1 L18.09,14.1 Z M32.54,14.1 L29.446,14.1 L27.185,18.69 L24.924,14.1 L21.83,14.1 L25.825,21.427 L25.825,26 L28.545,26 L28.545,21.427 L32.54,14.1 Z" id="DIY" fill="#FFFFFF"></path>
                <path d="M13.6070291,48.3346481 L13.6070291,39.120426 L12.4576459,39.120426 L12.4576459,43.1049545 L7.40035977,43.1049545 L7.40035977,39.120426 L6.25097656,39.120426 L6.25097656,48.3346481 L7.40035977,48.3346481 L7.40035977,44.1393994 L12.4576459,44.1393994 L12.4576459,48.3346481 L13.6070291,48.3346481 Z M19.5055542,38.9033203 C20.816709,38.9033203 21.8468866,39.3375274 22.5961179,40.2059546 C23.3453493,41.0743818 23.7199593,42.2471667 23.7199593,43.7243443 C23.7199593,45.197265 23.3464135,46.3700498 22.5993107,47.242734 C21.8522079,48.1154182 20.820966,48.5517538 19.5055542,48.5517538 C18.1858854,48.5517538 17.1503866,48.1154182 16.3990268,47.242734 C15.647667,46.3700498 15.2719927,45.197265 15.2719927,43.7243443 C15.2719927,42.2429097 15.6519239,41.0690606 16.4117978,40.2027619 C17.1716716,39.3364632 18.2029134,38.9033203 19.5055542,38.9033203 Z M19.5055542,39.963307 C18.5690151,39.963307 17.8261804,40.3017332 17.2770279,40.9785955 C16.7278754,41.6554579 16.4533033,42.5706984 16.4533033,43.7243443 C16.4533033,44.8652193 16.7225542,45.7783312 17.2610642,46.4637076 C17.7995742,47.149084 18.5477301,47.491767 19.5055542,47.491767 C20.4506074,47.491767 21.1923778,47.149084 21.7308878,46.4637076 C22.2693978,45.7783312 22.5386488,44.8652193 22.5386488,43.7243443 C22.5386488,42.5706984 22.2683336,41.6554579 21.7276951,40.9785955 C21.1870566,40.3017332 20.4463504,39.963307 19.5055542,39.963307 Z M26.5662335,39.120426 L25.4168503,39.120426 L25.4168503,45.1674588 C25.4168503,46.1508249 25.7414414,46.9607062 26.3906333,47.5971272 C27.0398252,48.2335481 27.9348452,48.5517538 29.0757201,48.5517538 C30.2208521,48.5517538 31.1169363,48.2335481 31.7639998,47.5971272 C32.4110632,46.9607062 32.73459,46.1508249 32.73459,45.1674588 L32.73459,39.120426 L31.5852068,39.120426 L31.5852068,45.0908332 C31.5852068,45.7847236 31.367039,46.3583452 30.9306969,46.8117153 C30.4943548,47.2650854 29.8760354,47.491767 29.0757201,47.491767 C28.2796619,47.491767 27.6624067,47.2650854 27.2239361,46.8117153 C26.7854655,46.3583452 26.5662335,45.7847236 26.5662335,45.0908332 L26.5662335,39.120426 Z M34.34847,45.9273288 C34.4080679,46.7233871 34.7496867,47.3597984 35.3733367,47.836582 C35.9969866,48.3133656 36.7962256,48.5517538 37.7710777,48.5517538 C38.8268128,48.5517538 39.6643642,48.301659 40.2837571,47.801462 C40.9031501,47.3012649 41.2128419,46.6276054 41.2128419,45.7804632 C41.2128419,45.1036008 41.0053165,44.5650988 40.5902593,44.1649412 C40.1752022,43.7647836 39.4909003,43.4455137 38.5373332,43.2071219 L37.5731284,42.9517034 C36.938836,42.7899375 36.4844085,42.5962471 36.2098322,42.3706263 C35.935256,42.1450055 35.7979699,41.8512772 35.7979699,41.4894325 C35.7979699,41.021163 35.9842107,40.6465529 36.3566979,40.3655912 C36.729185,40.0846294 37.2219249,39.9441507 37.8349324,39.9441507 C38.4096268,39.9441507 38.8810821,40.0771798 39.2493123,40.343242 C39.6175424,40.6093043 39.8420956,40.9785932 39.9229785,41.4511197 L41.0787472,41.4511197 C41.0319202,40.7061454 40.7083934,40.0952756 40.1081569,39.6184921 C39.5079205,39.1417085 38.7629573,38.9033203 37.8732451,38.9033203 C36.898393,38.9033203 36.1119248,39.1449012 35.5138168,39.6280703 C34.9157089,40.1112393 34.6166594,40.744458 34.6166594,41.5277453 C34.6166594,42.1833227 34.8060929,42.7079896 35.1849655,43.1017617 C35.5638382,43.4955339 36.170451,43.7988403 37.0048223,44.0116901 L38.1861328,44.3181923 C38.8204252,44.4757012 39.2865593,44.6842908 39.584549,44.9439676 C39.8825388,45.2036444 40.0315314,45.5292997 40.0315314,45.9209433 C40.0315314,46.3764419 39.8282629,46.7542446 39.4217197,47.0543629 C39.0151766,47.3544811 38.501152,47.504538 37.8796306,47.504538 C37.2240532,47.504538 36.6834228,47.3619307 36.2577232,47.076712 C35.8320236,46.7914933 35.582993,46.4083693 35.5106241,45.9273288 L34.34847,45.9273288 Z M48.5033978,47.3002032 L43.9441778,47.3002032 L43.9441778,44.1330139 L48.2671357,44.1330139 L48.2671357,43.1113399 L43.9441778,43.1113399 L43.9441778,40.1548709 L48.5033978,40.1548709 L48.5033978,39.120426 L42.7947946,39.120426 L42.7947946,48.3346481 L48.5033978,48.3346481 L48.5033978,47.3002032 Z M57.6138105,48.3346481 L57.6138105,39.120426 L56.4644273,39.120426 L56.4644273,43.1049545 L51.4071412,43.1049545 L51.4071412,39.120426 L50.257758,39.120426 L50.257758,48.3346481 L51.4071412,48.3346481 L51.4071412,44.1393994 L56.4644273,44.1393994 L56.4644273,48.3346481 L57.6138105,48.3346481 Z M63.5123356,38.9033203 C64.8234904,38.9033203 65.853668,39.3375274 66.6028993,40.2059546 C67.3521306,41.0743818 67.7267407,42.2471667 67.7267407,43.7243443 C67.7267407,45.197265 67.3531949,46.3700498 66.6060921,47.242734 C65.8589892,48.1154182 64.8277474,48.5517538 63.5123356,48.5517538 C62.1926668,48.5517538 61.157168,48.1154182 60.4058082,47.242734 C59.6544484,46.3700498 59.2787741,45.197265 59.2787741,43.7243443 C59.2787741,42.2429097 59.6587053,41.0690606 60.4185791,40.2027619 C61.1784529,39.3364632 62.2096948,38.9033203 63.5123356,38.9033203 Z M63.5123356,39.963307 C62.5757965,39.963307 61.8329618,40.3017332 61.2838093,40.9785955 C60.7346568,41.6554579 60.4600846,42.5706984 60.4600846,43.7243443 C60.4600846,44.8652193 60.7293356,45.7783312 61.2678456,46.4637076 C61.8063556,47.149084 62.5545115,47.491767 63.5123356,47.491767 C64.4573887,47.491767 65.1991592,47.149084 65.7376692,46.4637076 C66.2761792,45.7783312 66.5454302,44.8652193 66.5454302,43.7243443 C66.5454302,42.5706984 66.275115,41.6554579 65.7344765,40.9785955 C65.193838,40.3017332 64.4531317,39.963307 63.5123356,39.963307 Z M74.9853693,47.3002032 L70.5410876,47.3002032 L70.5410876,39.120426 L69.3917044,39.120426 L69.3917044,48.3346481 L74.9853693,48.3346481 L74.9853693,47.3002032 Z M76.4906964,39.120426 L79.6515002,39.120426 C81.017996,39.120426 82.0843575,39.5248346 82.8506168,40.3336639 C83.6168761,41.1424931 84,42.2727086 84,43.7243443 C84,45.17598 83.6179403,46.3072597 82.8538095,47.1182175 C82.0896787,47.9291753 81.022253,48.3346481 79.6515002,48.3346481 L76.4906964,48.3346481 L76.4906964,39.120426 Z M77.6400796,40.1548709 L77.6400796,47.3002032 L79.5748747,47.3002032 C80.6050677,47.3002032 81.4043068,46.9873186 81.9726157,46.3615402 C82.5409247,45.7357618 82.8250749,44.8609622 82.8250749,43.7371152 C82.8250749,42.6090113 82.5387963,41.7299548 81.9662303,41.0999193 C81.3936643,40.4698839 80.5965537,40.1548709 79.5748747,40.1548709 L77.6400796,40.1548709 Z" id="HOUSEHOLD" fill="#2B2A29" opacity="0.849999964"></path>
                <path d="M20.104658,76.3679245 L19.6466502,75.8689011 C19.3413101,75.5362171 19.0359746,75.2058168 18.7306346,74.8776902 L18.2726268,74.3855027 C17.4431955,75.1237876 16.4770594,75.6934434 15.3741893,76.094487 C14.2713192,76.4955307 13.1365649,76.6960495 11.9698924,76.6960495 C10.0193618,76.6960495 8.42888292,76.1765235 7.19840802,75.1374558 C5.96793312,74.0983881 5.35270489,72.7585577 5.35270489,71.1179245 C5.35270489,69.9603667 5.67171212,68.9327077 6.30973614,68.0349167 C6.94776017,67.1371258 7.91845359,66.3418863 9.22184552,65.6491745 C9.35856495,65.5762575 9.47477473,65.5147347 9.57047833,65.4646042 C9.66618193,65.4144738 9.74821236,65.3711799 9.81657208,65.3347214 C9.8849318,65.2982629 9.93734013,65.2754767 9.97379864,65.266362 C9.08967964,64.3275553 8.46077968,63.5095296 8.08707989,62.8122605 C7.71338011,62.1149914 7.52653302,61.4063396 7.52653302,60.6862839 C7.52653302,59.4375797 8.00048661,58.396249 8.94840802,57.5622605 C9.89632943,56.7282719 11.0812134,56.3112839 12.5030955,56.3112839 C13.9523215,56.3112839 15.14632,56.7259933 16.0851268,57.5554245 C17.0239335,58.3848558 17.4933299,59.4375796 17.4933299,60.7136277 C17.4933299,61.7162368 17.1652082,62.6117357 16.5089549,63.4001511 C15.8527016,64.1885665 14.7726343,64.9792487 13.2687205,65.7722214 L18.1495799,71.0358933 C18.4685919,70.4343278 18.7055687,69.7120043 18.8605174,68.8689011 C19.0154661,68.0257979 19.0929393,66.9981389 19.0929393,65.7858933 L19.0929393,65.1980027 L21.3624705,65.1980027 L21.3624705,65.7995652 C21.3624705,67.3034789 21.2257531,68.6159658 20.9523143,69.7370652 C20.6788754,70.8581645 20.2732805,71.8425297 19.7355174,72.6901902 L23.1945018,76.3679245 L20.104658,76.3679245 Z M10.6300486,67.0847214 C9.60921021,67.7045162 8.88005083,68.3151871 8.44254864,68.9167527 C8.00504646,69.5183182 7.78629864,70.1973478 7.78629864,70.953862 C7.78629864,72.0567321 8.19189355,72.9476737 9.00309552,73.6267136 C9.81429749,74.3057534 10.8761358,74.6452683 12.1886424,74.6452683 C13.0727614,74.6452683 13.9363595,74.4789288 14.7794627,74.1462448 C15.6225659,73.8135609 16.3084314,73.3692294 16.8370799,72.813237 L11.2862986,66.7292527 L11.0675486,66.8386277 C10.9764024,66.8842008 10.8920933,66.9297733 10.814619,66.9753464 C10.7371446,67.0209195 10.6756218,67.0573775 10.6300486,67.0847214 Z M11.9562205,64.391362 C13.1411223,63.7897965 13.9773769,63.2155835 14.4650096,62.6687058 C14.9526422,62.121828 15.1964549,61.4974853 15.1964549,60.7956589 C15.1964549,60.0391447 14.9503636,59.4239165 14.4581736,58.9499558 C13.9659837,58.4759951 13.3188547,58.2390183 12.5167674,58.2390183 C11.7420239,58.2390183 11.1040095,58.4805523 10.6027049,58.9636277 C10.1014003,59.446703 9.85075177,60.0664885 9.85075177,60.8230027 C9.85075177,61.3607658 10.0102554,61.8985208 10.3292674,62.4362839 C10.6482794,62.974047 11.1905917,63.6257332 11.9562205,64.391362 Z" id="&amp;" fill="#F79B58"></path>
                <path d="M26.9110186,63.2747533 L26.9110186,60.0521546 L30.2058036,60.0521546 L30.2058036,59.2271693 L26.9110186,59.2271693 L26.9110186,56.6697149 L30.4997046,56.6697149 L30.4997046,55.8344173 L25.9829102,55.8344173 L25.9829102,63.2747533 L26.9110186,63.2747533 Z M33.0416905,55.8344173 L32.113582,55.8344173 L32.113582,60.717299 C32.113582,61.5113513 32.3756841,62.1653174 32.8998961,62.6792171 C33.4241081,63.1931167 34.1468224,63.4500627 35.0680606,63.4500627 C35.9927362,63.4500627 36.7163098,63.1931167 37.2388031,62.6792171 C37.7612964,62.1653174 38.0225391,61.5113513 38.0225391,60.717299 L38.0225391,55.8344173 L37.0944307,55.8344173 L37.0944307,60.6554251 C37.0944307,61.2157304 36.9182637,61.6789206 36.5659245,62.0450097 C36.2135852,62.4110987 35.7143023,62.5941405 35.0680606,62.5941405 C34.4252563,62.5941405 33.9268327,62.4110987 33.5727747,62.0450097 C33.2187168,61.6789206 33.0416905,61.2157304 33.0416905,60.6554251 L33.0416905,55.8344173 Z M40.9357684,56.6594026 L40.9357684,59.5056018 L42.7662045,59.5056018 C43.2440108,59.5056018 43.6126724,59.3827146 43.8722003,59.1369365 C44.1317283,58.8911585 44.2614903,58.5396839 44.2614903,58.0825022 C44.2614903,57.635633 44.1257128,57.2867364 43.8541538,57.0358022 C43.5825948,56.7848679 43.206199,56.6594026 42.7249552,56.6594026 L40.9357684,56.6594026 Z M40.9357684,60.3305871 L40.9357684,63.2747533 L40.0076599,63.2747533 L40.0076599,55.8344173 L42.848703,55.8344173 C43.5671313,55.8344173 44.1420371,56.0363648 44.5734378,56.4402659 C45.0048385,56.844167 45.2205357,57.3812614 45.2205357,58.0515653 C45.2205357,58.5706211 45.0881956,59.0192024 44.8235115,59.3973225 C44.5588274,59.7754427 44.1927438,60.0384041 43.7252498,60.1862147 L45.4474066,63.2747533 L44.3594573,63.2747533 L42.7662045,60.3305871 L40.9357684,60.3305871 Z M47.8862694,63.2747533 L47.8862694,57.5050125 L47.9687679,57.5050125 L52.0060396,63.2747533 L52.9083672,63.2747533 L52.9083672,55.8344173 L51.9905711,55.8344173 L51.9905711,61.6247828 L51.9080726,61.6247828 L47.8708009,55.8344173 L46.9684732,55.8344173 L46.9684732,63.2747533 L47.8862694,63.2747533 Z M55.7958157,63.2747533 L55.7958157,55.8344173 L54.8677073,55.8344173 L54.8677073,63.2747533 L55.7958157,63.2747533 Z M60.6168235,63.2747533 L60.6168235,56.6697149 L63.0144369,56.6697149 L63.0144369,55.8344173 L57.2911015,55.8344173 L57.2911015,56.6697149 L59.688715,56.6697149 L59.688715,63.2747533 L60.6168235,63.2747533 Z M65.463612,55.8344173 L64.5355035,55.8344173 L64.5355035,60.717299 C64.5355035,61.5113513 64.7976056,62.1653174 65.3218176,62.6792171 C65.8460297,63.1931167 66.5687439,63.4500627 67.4899821,63.4500627 C68.4146577,63.4500627 69.1382313,63.1931167 69.6607246,62.6792171 C70.1832179,62.1653174 70.4444606,61.5113513 70.4444606,60.717299 L70.4444606,55.8344173 L69.5163522,55.8344173 L69.5163522,60.6554251 C69.5163522,61.2157304 69.3401852,61.6789206 68.987846,62.0450097 C68.6355068,62.4110987 68.1362238,62.5941405 67.4899821,62.5941405 C66.8471778,62.5941405 66.3487542,62.4110987 65.9946963,62.0450097 C65.6406383,61.6789206 65.463612,61.2157304 65.463612,60.6554251 L65.463612,55.8344173 Z M73.3576899,56.6594026 L73.3576899,59.5056018 L75.188126,59.5056018 C75.6659323,59.5056018 76.0345939,59.3827146 76.2941219,59.1369365 C76.5536498,58.8911585 76.6834118,58.5396839 76.6834118,58.0825022 C76.6834118,57.635633 76.5476343,57.2867364 76.2760753,57.0358022 C76.0045163,56.7848679 75.6281205,56.6594026 75.1468767,56.6594026 L73.3576899,56.6594026 Z M73.3576899,60.3305871 L73.3576899,63.2747533 L72.4295814,63.2747533 L72.4295814,55.8344173 L75.2706245,55.8344173 C75.9890528,55.8344173 76.5639586,56.0363648 76.9953594,56.4402659 C77.4267601,56.844167 77.6424572,57.3812614 77.6424572,58.0515653 C77.6424572,58.5706211 77.5101171,59.0192024 77.245433,59.3973225 C76.9807489,59.7754427 76.6146654,60.0384041 76.1471714,60.1862147 L77.8693281,63.2747533 L76.7813788,63.2747533 L75.188126,60.3305871 L73.3576899,60.3305871 Z M84,62.4394557 L80.3185032,62.4394557 L80.3185032,59.8820014 L83.8092222,59.8820014 L83.8092222,59.0570161 L80.3185032,59.0570161 L80.3185032,56.6697149 L84,56.6697149 L84,55.8344173 L79.3903947,55.8344173 L79.3903947,63.2747533 L84,63.2747533 L84,62.4394557 Z M26.9110186,69.13918 L26.9110186,71.9853792 L28.7414547,71.9853792 C29.2192611,71.9853792 29.5879227,71.862492 29.8474506,71.6167139 C30.1069785,71.3709358 30.2367405,71.0194612 30.2367405,70.5622796 C30.2367405,70.1154103 30.100963,69.7665138 29.829404,69.5155795 C29.557845,69.2646452 29.1814492,69.13918 28.7002054,69.13918 L26.9110186,69.13918 Z M26.9110186,72.8103645 L26.9110186,75.7545307 L25.9829102,75.7545307 L25.9829102,68.3141947 L28.8239532,68.3141947 C29.5423815,68.3141947 30.1172874,68.5161422 30.5486881,68.9200432 C30.9800888,69.3239443 31.1957859,69.8610387 31.1957859,70.5313426 C31.1957859,71.0503985 31.0634458,71.4989797 30.7987617,71.8770999 C30.5340776,72.25522 30.1679941,72.5181814 29.7005001,72.665992 L31.4226568,75.7545307 L30.3347075,75.7545307 L28.7414547,72.8103645 L26.9110186,72.8103645 Z M37.5533287,74.9192331 L33.8718319,74.9192331 L33.8718319,72.3617787 L37.3625509,72.3617787 L37.3625509,71.5367934 L33.8718319,71.5367934 L33.8718319,69.1494923 L37.5533287,69.1494923 L37.5533287,68.3141947 L32.9437235,68.3141947 L32.9437235,75.7545307 L37.5533287,75.7545307 L37.5533287,74.9192331 Z M42.1577778,75.7545307 L42.1577778,69.1494923 L44.5553913,69.1494923 L44.5553913,68.3141947 L38.8320559,68.3141947 L38.8320559,69.1494923 L41.2296694,69.1494923 L41.2296694,75.7545307 L42.1577778,75.7545307 Z M50.8871533,75.7545307 L50.7737178,75.4322708 C50.6980938,75.2174298 50.6112993,74.9699367 50.5133319,74.689784 C50.4153644,74.4096314 50.3285699,74.1621383 50.2529459,73.9472973 L50.1395104,73.6250374 L47.1798757,73.6250374 L46.4322328,75.7545307 L45.4577189,75.7545307 L48.200795,68.3141947 L49.1185911,68.3141947 L51.8616672,75.7545307 L50.8871533,75.7545307 Z M48.6184438,69.5155795 L48.4998522,69.8507298 C48.4207907,70.0741644 48.323684,70.3508754 48.2085292,70.6808712 L47.8630666,71.6708535 C47.7479119,72.0008493 47.6508052,72.2775603 47.5717437,72.500995 L47.4531521,72.8361452 L49.866234,72.8361452 L48.7009423,69.5155795 L48.6184438,69.5155795 Z M54.1561575,75.7545307 L54.1561575,68.3141947 L53.228049,68.3141947 L53.228049,75.7545307 L54.1561575,75.7545307 Z M60.6322919,74.9192331 L57.043606,74.9192331 L57.043606,68.3141947 L56.1154975,68.3141947 L56.1154975,75.7545307 L60.6322919,75.7545307 L60.6322919,74.9192331 Z" id="FURNITURE-RETAIL" fill="#2B2A29" opacity="0.849999964"></path>
            </g>
        </g>
    </g>
</svg>