<?xml version="1.0" encoding="UTF-8"?>
<svg width="90px" height="85px" viewBox="0 0 90 85" version="1.1" xmlns="http://www.w3.org/2000/svg" xmlns:xlink="http://www.w3.org/1999/xlink">
    <!-- Generator: Sketch 47.1 (45422) - http://www.bohemiancoding.com/sketch -->
    <title>fashion-retail-russia</title>
    <desc>Created with Sketch.</desc>
    <defs></defs>
    <g id="Главная" stroke="none" stroke-width="1" fill="none" fill-rule="evenodd">
        <g id="Group-34" transform="translate(-661.000000, 0.000000)">
            <g id="fashion-retail-russia" transform="translate(661.000000, 0.000000)">
                <rect id="Rectangle-4-Copy-2" fill="#FFFFFF" x="0" y="0" width="90" height="85" rx="1.69811321"></rect>
                <rect id="Rectangle-11" fill="#9E1BAD" x="-8.5975671e-13" y="10" width="90" height="21"></rect>
                <path d="M13.245,16.718 L13.245,14.1 L6.02,14.1 L6.02,26 L8.74,26 L8.74,21.631 L13.16,21.631 L13.16,19.013 L8.74,19.013 L8.74,16.718 L13.245,16.718 Z M22.425,26 L21.83,24.13 L17.41,24.13 L16.815,26 L13.84,26 L17.886,14.1 L21.354,14.1 L25.4,26 L22.425,26 Z M18.226,21.58 L21.014,21.58 L19.62,17.211 L18.226,21.58 Z M30.585,26.238 C33.169,26.238 35.005,24.878 35.005,22.583 C35.005,20.067 32.982,19.438 31.18,18.894 C29.327,18.333 29.038,17.959 29.038,17.415 C29.038,16.939 29.463,16.514 30.313,16.514 C31.401,16.514 31.962,17.041 32.37,17.891 L34.665,16.548 C33.798,14.797 32.268,13.862 30.313,13.862 C28.256,13.862 26.318,15.188 26.318,17.483 C26.318,19.761 28.052,20.611 29.82,21.104 C31.605,21.597 32.285,21.886 32.285,22.617 C32.285,23.076 31.962,23.586 30.67,23.586 C29.327,23.586 28.596,22.923 28.171,21.937 L25.825,23.297 C26.488,25.048 28.086,26.238 30.585,26.238 Z M42.825,14.1 L42.825,18.656 L39.085,18.656 L39.085,14.1 L36.365,14.1 L36.365,26 L39.085,26 L39.085,21.274 L42.825,21.274 L42.825,26 L45.545,26 L45.545,14.1 L42.825,14.1 Z M47.585,14.1 L47.585,26 L50.305,26 L50.305,14.1 L47.585,14.1 Z M58.023,26.238 C54.606,26.238 51.835,23.552 51.835,20.05 C51.835,16.548 54.606,13.862 58.023,13.862 C61.44,13.862 64.211,16.548 64.211,20.05 C64.211,23.552 61.44,26.238 58.023,26.238 Z M58.023,23.586 C59.961,23.586 61.491,22.175 61.491,20.05 C61.491,17.925 59.961,16.514 58.023,16.514 C56.085,16.514 54.555,17.925 54.555,20.05 C54.555,22.175 56.085,23.586 58.023,23.586 Z M72.371,14.1 L72.371,20.56 L67.781,14.1 L65.741,14.1 L65.741,26 L68.461,26 L68.461,19.54 L73.051,26 L75.091,26 L75.091,14.1 L72.371,14.1 Z" id="FASHION" fill="#FFFFFF"></path>
                <path d="M7.8359375,39.9765625 L7.8359375,44.2890625 L10.609375,44.2890625 C11.333337,44.2890625 11.8919251,44.1028664 12.2851562,43.7304688 C12.6783874,43.3580711 12.875,42.8255243 12.875,42.1328125 C12.875,41.4557258 12.6692729,40.9270852 12.2578125,40.546875 C11.8463521,40.1666648 11.2760453,39.9765625 10.546875,39.9765625 L7.8359375,39.9765625 Z M7.8359375,45.5390625 L7.8359375,50 L6.4296875,50 L6.4296875,38.7265625 L10.734375,38.7265625 C11.8229221,38.7265625 12.6940071,39.032549 13.3476562,39.6445312 C14.0013054,40.2565135 14.328125,41.0703074 14.328125,42.0859375 C14.328125,42.8723998 14.1276062,43.5520805 13.7265625,44.125 C13.3255188,44.6979195 12.7708369,45.096353 12.0625,45.3203125 L14.671875,50 L13.0234375,50 L10.609375,45.5390625 L7.8359375,45.5390625 Z M23.5546875,48.734375 L17.9765625,48.734375 L17.9765625,44.859375 L23.265625,44.859375 L23.265625,43.609375 L17.9765625,43.609375 L17.9765625,39.9921875 L23.5546875,39.9921875 L23.5546875,38.7265625 L16.5703125,38.7265625 L16.5703125,50 L23.5546875,50 L23.5546875,48.734375 Z M30.125,50 L30.125,39.9921875 L33.7578125,39.9921875 L33.7578125,38.7265625 L25.0859375,38.7265625 L25.0859375,39.9921875 L28.71875,39.9921875 L28.71875,50 L30.125,50 Z M42.9453125,50 L42.7734375,49.5117188 C42.6588536,49.1861963 42.5273445,48.8112 42.3789062,48.3867188 C42.230468,47.9622375 42.0989589,47.5872412 41.984375,47.2617188 L41.8125,46.7734375 L37.328125,46.7734375 L36.1953125,50 L34.71875,50 L38.875,38.7265625 L40.265625,38.7265625 L44.421875,50 L42.9453125,50 Z M39.5078125,40.546875 L39.328125,41.0546875 C39.2083327,41.3932309 39.0611988,41.8124975 38.8867188,42.3125 L38.3632813,43.8125 C38.1888012,44.3125025 38.0416673,44.7317691 37.921875,45.0703125 L37.7421875,45.578125 L41.3984375,45.578125 L39.6328125,40.546875 L39.5078125,40.546875 Z M47.4921875,50 L47.4921875,38.7265625 L46.0859375,38.7265625 L46.0859375,50 L47.4921875,50 Z M56.8984375,48.734375 L51.4609375,48.734375 L51.4609375,38.7265625 L50.0546875,38.7265625 L50.0546875,50 L56.8984375,50 L56.8984375,48.734375 Z M7.8359375,58.9765625 L7.8359375,63.2890625 L10.609375,63.2890625 C11.333337,63.2890625 11.8919251,63.1028664 12.2851562,62.7304688 C12.6783874,62.3580711 12.875,61.8255243 12.875,61.1328125 C12.875,60.4557258 12.6692729,59.9270852 12.2578125,59.546875 C11.8463521,59.1666648 11.2760453,58.9765625 10.546875,58.9765625 L7.8359375,58.9765625 Z M7.8359375,64.5390625 L7.8359375,69 L6.4296875,69 L6.4296875,57.7265625 L10.734375,57.7265625 C11.8229221,57.7265625 12.6940071,58.032549 13.3476562,58.6445312 C14.0013054,59.2565135 14.328125,60.0703074 14.328125,61.0859375 C14.328125,61.8723998 14.1276062,62.5520805 13.7265625,63.125 C13.3255188,63.6979195 12.7708369,64.096353 12.0625,64.3203125 L14.671875,69 L13.0234375,69 L10.609375,64.5390625 L7.8359375,64.5390625 Z M18.015625,57.7265625 L16.609375,57.7265625 L16.609375,65.125 C16.609375,66.328131 17.0065064,67.3190065 17.8007812,68.0976562 C18.5950561,68.876306 19.6900972,69.265625 21.0859375,69.265625 C22.4869862,69.265625 23.5833294,68.876306 24.375,68.0976562 C25.1666706,67.3190065 25.5625,66.328131 25.5625,65.125 L25.5625,57.7265625 L24.15625,57.7265625 L24.15625,65.03125 C24.15625,65.8802126 23.8893256,66.5820285 23.3554688,67.1367188 C22.8216119,67.691409 22.0651091,67.96875 21.0859375,67.96875 C20.1119743,67.96875 19.3567735,67.691409 18.8203125,67.1367188 C18.2838515,66.5820285 18.015625,65.8802126 18.015625,65.03125 L18.015625,57.7265625 Z M27.625,66.0546875 C27.697917,67.0286507 28.1158816,67.8072887 28.8789062,68.390625 C29.6419309,68.9739613 30.6197857,69.265625 31.8125,69.265625 C33.1041731,69.265625 34.1289025,68.9596385 34.8867188,68.3476562 C35.644535,67.735674 36.0234375,66.9114635 36.0234375,65.875 C36.0234375,65.0468709 35.7695338,64.3880233 35.2617188,63.8984375 C34.7539037,63.4088517 33.9166725,63.0182306 32.75,62.7265625 L31.5703125,62.4140625 C30.794267,62.2161448 30.2382829,61.979168 29.9023438,61.703125 C29.5664046,61.427082 29.3984375,61.0677105 29.3984375,60.625 C29.3984375,60.0520805 29.6262998,59.5937517 30.0820312,59.25 C30.5377627,58.9062483 31.1406212,58.734375 31.890625,58.734375 C32.5937535,58.734375 33.1705707,58.8971338 33.6210938,59.2226562 C34.0716168,59.5481787 34.3463537,59.9999971 34.4453125,60.578125 L35.859375,60.578125 C35.802083,59.6666621 35.4062537,58.9192738 34.671875,58.3359375 C33.9374963,57.7526012 33.0260471,57.4609375 31.9375,57.4609375 C30.7447857,57.4609375 29.7825557,57.7565075 29.0507812,58.3476562 C28.3190068,58.938805 27.953125,59.7135369 27.953125,60.671875 C27.953125,61.4739623 28.1848935,62.115883 28.6484375,62.5976562 C29.1119815,63.0794295 29.8541616,63.4505195 30.875,63.7109375 L32.3203125,64.0859375 C33.096358,64.2786468 33.6666648,64.5338526 34.03125,64.8515625 C34.3958352,65.1692724 34.578125,65.5677059 34.578125,66.046875 C34.578125,66.6041695 34.3294296,67.0664044 33.8320312,67.4335938 C33.3346329,67.8007831 32.705733,67.984375 31.9453125,67.984375 C31.1432252,67.984375 30.4817734,67.8098976 29.9609375,67.4609375 C29.4401016,67.1119774 29.1354171,66.6432321 29.046875,66.0546875 L27.625,66.0546875 Z M37.5078125,66.0546875 C37.5807295,67.0286507 37.9986941,67.8072887 38.7617188,68.390625 C39.5247434,68.9739613 40.5025982,69.265625 41.6953125,69.265625 C42.9869856,69.265625 44.011715,68.9596385 44.7695313,68.3476562 C45.5273475,67.735674 45.90625,66.9114635 45.90625,65.875 C45.90625,65.0468709 45.6523463,64.3880233 45.1445313,63.8984375 C44.6367162,63.4088517 43.799485,63.0182306 42.6328125,62.7265625 L41.453125,62.4140625 C40.6770795,62.2161448 40.1210954,61.979168 39.7851563,61.703125 C39.4492171,61.427082 39.28125,61.0677105 39.28125,60.625 C39.28125,60.0520805 39.5091123,59.5937517 39.9648438,59.25 C40.4205752,58.9062483 41.0234338,58.734375 41.7734375,58.734375 C42.476566,58.734375 43.0533832,58.8971338 43.5039063,59.2226562 C43.9544293,59.5481787 44.2291662,59.9999971 44.328125,60.578125 L45.7421875,60.578125 C45.6848955,59.6666621 45.2890662,58.9192738 44.5546875,58.3359375 C43.8203088,57.7526012 42.9088596,57.4609375 41.8203125,57.4609375 C40.6275982,57.4609375 39.6653682,57.7565075 38.9335938,58.3476562 C38.2018193,58.938805 37.8359375,59.7135369 37.8359375,60.671875 C37.8359375,61.4739623 38.067706,62.115883 38.53125,62.5976562 C38.994794,63.0794295 39.7369741,63.4505195 40.7578125,63.7109375 L42.203125,64.0859375 C42.9791705,64.2786468 43.5494773,64.5338526 43.9140625,64.8515625 C44.2786477,65.1692724 44.4609375,65.5677059 44.4609375,66.046875 C44.4609375,66.6041695 44.2122421,67.0664044 43.7148438,67.4335938 C43.2174454,67.8007831 42.5885455,67.984375 41.828125,67.984375 C41.0260377,67.984375 40.3645859,67.8098976 39.84375,67.4609375 C39.3229141,67.1119774 39.0182296,66.6432321 38.9296875,66.0546875 L37.5078125,66.0546875 Z M49.3359375,69 L49.3359375,57.7265625 L47.9296875,57.7265625 L47.9296875,69 L49.3359375,69 Z M59.2265625,69 L59.0546875,68.5117188 C58.9401036,68.1861963 58.8085945,67.8112 58.6601562,67.3867188 C58.511718,66.9622375 58.3802089,66.5872412 58.265625,66.2617188 L58.09375,65.7734375 L53.609375,65.7734375 L52.4765625,69 L51,69 L55.15625,57.7265625 L56.546875,57.7265625 L60.703125,69 L59.2265625,69 Z M55.7890625,59.546875 L55.609375,60.0546875 C55.4895827,60.3932309 55.3424488,60.8124975 55.1679688,61.3125 L54.6445312,62.8125 C54.4700512,63.3125025 54.3229173,63.7317691 54.203125,64.0703125 L54.0234375,64.578125 L57.6796875,64.578125 L55.9140625,59.546875 L55.7890625,59.546875 Z" id="RETAIL-RUSSIA" fill="#2B2A29" opacity="0.849999964"></path>
            </g>
        </g>
    </g>
</svg>