<?xml version="1.0" encoding="UTF-8"?>
<svg width="90px" height="85px" viewBox="0 0 90 85" version="1.1" xmlns="http://www.w3.org/2000/svg" xmlns:xlink="http://www.w3.org/1999/xlink">
    <!-- Generator: Sketch 47.1 (45422) - http://www.bohemiancoding.com/sketch -->
    <title>fresh-food-russia</title>
    <desc>Created with Sketch.</desc>
    <defs></defs>
    <g id="Главная" stroke="none" stroke-width="1" fill="none" fill-rule="evenodd">
        <g id="Group-34" transform="translate(-771.000000, 0.000000)">
            <g id="fresh-food-russia" transform="translate(771.000000, 0.000000)">
                <rect id="Rectangle-4-Copy-2" fill="#FFFFFF" x="0" y="0" width="90" height="85" rx="1.69811321"></rect>
                <rect id="Rectangle-11" fill="#1DB312" x="-8.5975671e-13" y="10" width="90" height="21"></rect>
                <path d="M13.245,16.718 L13.245,14.1 L6.02,14.1 L6.02,26 L8.74,26 L8.74,21.631 L13.16,21.631 L13.16,19.013 L8.74,19.013 L8.74,16.718 L13.245,16.718 Z M21.116,26 L18.872,22.09 L17.58,22.09 L17.58,26 L14.86,26 L14.86,14.1 L19.62,14.1 C21.881,14.1 23.7,15.919 23.7,18.18 C23.7,19.642 22.816,20.968 21.507,21.631 L24.04,26 L21.116,26 Z M17.58,16.65 L17.58,19.71 L19.62,19.71 C20.368,19.71 20.98,19.047 20.98,18.18 C20.98,17.313 20.368,16.65 19.62,16.65 L17.58,16.65 Z M28.035,23.382 L28.035,21.274 L32.285,21.274 L32.285,18.69 L28.035,18.69 L28.035,16.718 L32.71,16.718 L32.71,14.1 L25.315,14.1 L25.315,26 L32.795,26 L32.795,23.382 L28.035,23.382 Z M38.49,26.238 C41.074,26.238 42.91,24.878 42.91,22.583 C42.91,20.067 40.887,19.438 39.085,18.894 C37.232,18.333 36.943,17.959 36.943,17.415 C36.943,16.939 37.368,16.514 38.218,16.514 C39.306,16.514 39.867,17.041 40.275,17.891 L42.57,16.548 C41.703,14.797 40.173,13.862 38.218,13.862 C36.161,13.862 34.223,15.188 34.223,17.483 C34.223,19.761 35.957,20.611 37.725,21.104 C39.51,21.597 40.19,21.886 40.19,22.617 C40.19,23.076 39.867,23.586 38.575,23.586 C37.232,23.586 36.501,22.923 36.076,21.937 L33.73,23.297 C34.393,25.048 35.991,26.238 38.49,26.238 Z M50.73,14.1 L50.73,18.656 L46.99,18.656 L46.99,14.1 L44.27,14.1 L44.27,26 L46.99,26 L46.99,21.274 L50.73,21.274 L50.73,26 L53.45,26 L53.45,14.1 L50.73,14.1 Z" id="FRESH" fill="#FFFFFF"></path>
                <path d="M7.8359375,50 L7.8359375,45.1171875 L12.828125,45.1171875 L12.828125,43.8671875 L7.8359375,43.8671875 L7.8359375,39.9921875 L13.2734375,39.9921875 L13.2734375,38.7265625 L6.4296875,38.7265625 L6.4296875,50 L7.8359375,50 Z M20.015625,38.4609375 C21.6197997,38.4609375 22.8802037,38.9921822 23.796875,40.0546875 C24.7135463,41.1171928 25.171875,42.5520743 25.171875,44.359375 C25.171875,46.1614673 24.7148483,47.5963488 23.8007812,48.6640625 C22.8867142,49.7317762 21.625008,50.265625 20.015625,50.265625 C18.4010336,50.265625 17.1341192,49.7317762 16.2148438,48.6640625 C15.2955683,47.5963488 14.8359375,46.1614673 14.8359375,44.359375 C14.8359375,42.5468659 15.3007766,41.1106824 16.2304688,40.0507812 C17.1601609,38.9908801 18.421867,38.4609375 20.015625,38.4609375 Z M20.015625,39.7578125 C18.8697859,39.7578125 17.9609409,40.1718709 17.2890625,41 C16.6171841,41.8281291 16.28125,42.9479096 16.28125,44.359375 C16.28125,45.7552153 16.6106738,46.8723916 17.2695312,47.7109375 C17.9283887,48.5494834 18.8437441,48.96875 20.015625,48.96875 C21.1718808,48.96875 22.0794238,48.5494834 22.7382812,47.7109375 C23.3971387,46.8723916 23.7265625,45.7552153 23.7265625,44.359375 C23.7265625,42.9479096 23.3958366,41.8281291 22.734375,41 C22.0729134,40.1718709 21.1666724,39.7578125 20.015625,39.7578125 Z M32.0390625,38.4609375 C33.6432372,38.4609375 34.9036412,38.9921822 35.8203125,40.0546875 C36.7369838,41.1171928 37.1953125,42.5520743 37.1953125,44.359375 C37.1953125,46.1614673 36.7382858,47.5963488 35.8242188,48.6640625 C34.9101517,49.7317762 33.6484455,50.265625 32.0390625,50.265625 C30.4244711,50.265625 29.1575567,49.7317762 28.2382812,48.6640625 C27.3190058,47.5963488 26.859375,46.1614673 26.859375,44.359375 C26.859375,42.5468659 27.3242141,41.1106824 28.2539062,40.0507812 C29.1835984,38.9908801 30.4453045,38.4609375 32.0390625,38.4609375 Z M32.0390625,39.7578125 C30.8932234,39.7578125 29.9843784,40.1718709 29.3125,41 C28.6406216,41.8281291 28.3046875,42.9479096 28.3046875,44.359375 C28.3046875,45.7552153 28.6341113,46.8723916 29.2929688,47.7109375 C29.9518262,48.5494834 30.8671816,48.96875 32.0390625,48.96875 C33.1953183,48.96875 34.1028613,48.5494834 34.7617188,47.7109375 C35.4205762,46.8723916 35.75,45.7552153 35.75,44.359375 C35.75,42.9479096 35.4192741,41.8281291 34.7578125,41 C34.0963509,40.1718709 33.1901099,39.7578125 32.0390625,39.7578125 Z M39.3203125,38.7265625 L43.1875,38.7265625 C44.8593834,38.7265625 46.1640578,39.2213492 47.1015625,40.2109375 C48.0390672,41.2005258 48.5078125,42.5833245 48.5078125,44.359375 C48.5078125,46.1354255 48.0403693,47.5195263 47.1054688,48.5117188 C46.1705682,49.5039112 44.8645917,50 43.1875,50 L39.3203125,50 L39.3203125,38.7265625 Z M40.7265625,39.9921875 L40.7265625,48.734375 L43.09375,48.734375 C44.354173,48.734375 45.3320278,48.3515663 46.0273438,47.5859375 C46.7226597,46.8203087 47.0703125,45.7500069 47.0703125,44.375 C47.0703125,42.9947848 46.7200556,41.9192747 46.0195312,41.1484375 C45.3190069,40.3776003 44.3437562,39.9921875 43.09375,39.9921875 L40.7265625,39.9921875 Z M7.8359375,58.9765625 L7.8359375,63.2890625 L10.609375,63.2890625 C11.333337,63.2890625 11.8919251,63.1028664 12.2851562,62.7304688 C12.6783874,62.3580711 12.875,61.8255243 12.875,61.1328125 C12.875,60.4557258 12.6692729,59.9270852 12.2578125,59.546875 C11.8463521,59.1666648 11.2760453,58.9765625 10.546875,58.9765625 L7.8359375,58.9765625 Z M7.8359375,64.5390625 L7.8359375,69 L6.4296875,69 L6.4296875,57.7265625 L10.734375,57.7265625 C11.8229221,57.7265625 12.6940071,58.032549 13.3476562,58.6445312 C14.0013054,59.2565135 14.328125,60.0703074 14.328125,61.0859375 C14.328125,61.8723998 14.1276062,62.5520805 13.7265625,63.125 C13.3255188,63.6979195 12.7708369,64.096353 12.0625,64.3203125 L14.671875,69 L13.0234375,69 L10.609375,64.5390625 L7.8359375,64.5390625 Z M18.015625,57.7265625 L16.609375,57.7265625 L16.609375,65.125 C16.609375,66.328131 17.0065064,67.3190065 17.8007812,68.0976562 C18.5950561,68.876306 19.6900972,69.265625 21.0859375,69.265625 C22.4869862,69.265625 23.5833294,68.876306 24.375,68.0976562 C25.1666706,67.3190065 25.5625,66.328131 25.5625,65.125 L25.5625,57.7265625 L24.15625,57.7265625 L24.15625,65.03125 C24.15625,65.8802126 23.8893256,66.5820285 23.3554688,67.1367188 C22.8216119,67.691409 22.0651091,67.96875 21.0859375,67.96875 C20.1119743,67.96875 19.3567735,67.691409 18.8203125,67.1367188 C18.2838515,66.5820285 18.015625,65.8802126 18.015625,65.03125 L18.015625,57.7265625 Z M27.625,66.0546875 C27.697917,67.0286507 28.1158816,67.8072887 28.8789062,68.390625 C29.6419309,68.9739613 30.6197857,69.265625 31.8125,69.265625 C33.1041731,69.265625 34.1289025,68.9596385 34.8867188,68.3476562 C35.644535,67.735674 36.0234375,66.9114635 36.0234375,65.875 C36.0234375,65.0468709 35.7695338,64.3880233 35.2617188,63.8984375 C34.7539037,63.4088517 33.9166725,63.0182306 32.75,62.7265625 L31.5703125,62.4140625 C30.794267,62.2161448 30.2382829,61.979168 29.9023438,61.703125 C29.5664046,61.427082 29.3984375,61.0677105 29.3984375,60.625 C29.3984375,60.0520805 29.6262998,59.5937517 30.0820312,59.25 C30.5377627,58.9062483 31.1406212,58.734375 31.890625,58.734375 C32.5937535,58.734375 33.1705707,58.8971338 33.6210938,59.2226562 C34.0716168,59.5481787 34.3463537,59.9999971 34.4453125,60.578125 L35.859375,60.578125 C35.802083,59.6666621 35.4062537,58.9192738 34.671875,58.3359375 C33.9374963,57.7526012 33.0260471,57.4609375 31.9375,57.4609375 C30.7447857,57.4609375 29.7825557,57.7565075 29.0507812,58.3476562 C28.3190068,58.938805 27.953125,59.7135369 27.953125,60.671875 C27.953125,61.4739623 28.1848935,62.115883 28.6484375,62.5976562 C29.1119815,63.0794295 29.8541616,63.4505195 30.875,63.7109375 L32.3203125,64.0859375 C33.096358,64.2786468 33.6666648,64.5338526 34.03125,64.8515625 C34.3958352,65.1692724 34.578125,65.5677059 34.578125,66.046875 C34.578125,66.6041695 34.3294296,67.0664044 33.8320312,67.4335938 C33.3346329,67.8007831 32.705733,67.984375 31.9453125,67.984375 C31.1432252,67.984375 30.4817734,67.8098976 29.9609375,67.4609375 C29.4401016,67.1119774 29.1354171,66.6432321 29.046875,66.0546875 L27.625,66.0546875 Z M37.5078125,66.0546875 C37.5807295,67.0286507 37.9986941,67.8072887 38.7617188,68.390625 C39.5247434,68.9739613 40.5025982,69.265625 41.6953125,69.265625 C42.9869856,69.265625 44.011715,68.9596385 44.7695313,68.3476562 C45.5273475,67.735674 45.90625,66.9114635 45.90625,65.875 C45.90625,65.0468709 45.6523463,64.3880233 45.1445313,63.8984375 C44.6367162,63.4088517 43.799485,63.0182306 42.6328125,62.7265625 L41.453125,62.4140625 C40.6770795,62.2161448 40.1210954,61.979168 39.7851563,61.703125 C39.4492171,61.427082 39.28125,61.0677105 39.28125,60.625 C39.28125,60.0520805 39.5091123,59.5937517 39.9648438,59.25 C40.4205752,58.9062483 41.0234338,58.734375 41.7734375,58.734375 C42.476566,58.734375 43.0533832,58.8971338 43.5039063,59.2226562 C43.9544293,59.5481787 44.2291662,59.9999971 44.328125,60.578125 L45.7421875,60.578125 C45.6848955,59.6666621 45.2890662,58.9192738 44.5546875,58.3359375 C43.8203088,57.7526012 42.9088596,57.4609375 41.8203125,57.4609375 C40.6275982,57.4609375 39.6653682,57.7565075 38.9335938,58.3476562 C38.2018193,58.938805 37.8359375,59.7135369 37.8359375,60.671875 C37.8359375,61.4739623 38.067706,62.115883 38.53125,62.5976562 C38.994794,63.0794295 39.7369741,63.4505195 40.7578125,63.7109375 L42.203125,64.0859375 C42.9791705,64.2786468 43.5494773,64.5338526 43.9140625,64.8515625 C44.2786477,65.1692724 44.4609375,65.5677059 44.4609375,66.046875 C44.4609375,66.6041695 44.2122421,67.0664044 43.7148438,67.4335938 C43.2174454,67.8007831 42.5885455,67.984375 41.828125,67.984375 C41.0260377,67.984375 40.3645859,67.8098976 39.84375,67.4609375 C39.3229141,67.1119774 39.0182296,66.6432321 38.9296875,66.0546875 L37.5078125,66.0546875 Z M49.3359375,69 L49.3359375,57.7265625 L47.9296875,57.7265625 L47.9296875,69 L49.3359375,69 Z M59.2265625,69 L59.0546875,68.5117188 C58.9401036,68.1861963 58.8085945,67.8112 58.6601562,67.3867188 C58.511718,66.9622375 58.3802089,66.5872412 58.265625,66.2617188 L58.09375,65.7734375 L53.609375,65.7734375 L52.4765625,69 L51,69 L55.15625,57.7265625 L56.546875,57.7265625 L60.703125,69 L59.2265625,69 Z M55.7890625,59.546875 L55.609375,60.0546875 C55.4895827,60.3932309 55.3424488,60.8124975 55.1679688,61.3125 L54.6445312,62.8125 C54.4700512,63.3125025 54.3229173,63.7317691 54.203125,64.0703125 L54.0234375,64.578125 L57.6796875,64.578125 L55.9140625,59.546875 L55.7890625,59.546875 Z" id="FOOD-RUSSIA" fill="#2B2A29" opacity="0.849999964"></path>
            </g>
        </g>
    </g>
</svg>