<?xml version="1.0" encoding="UTF-8"?>
<svg width="90px" height="85px" viewBox="0 0 90 85" version="1.1" xmlns="http://www.w3.org/2000/svg" xmlns:xlink="http://www.w3.org/1999/xlink">
    <!-- Generator: Sketch 47.1 (45422) - http://www.bohemiancoding.com/sketch -->
    <title>private-labels</title>
    <desc>Created with Sketch.</desc>
    <defs></defs>
    <g id="Главная" stroke="none" stroke-width="1" fill="none" fill-rule="evenodd">
        <g id="Group-34" transform="translate(-110.000000, 0.000000)">
            <g id="private-labels" transform="translate(110.000000, 0.000000)">
                <rect id="Rectangle-4-Copy-2" fill="#FFFFFF" x="0" y="0" width="90" height="85" rx="1.69811321"></rect>
                <rect id="Rectangle-11" fill="#7DAD52" x="-8.57980353e-13" y="10" width="90" height="21"></rect>
                <path d="M10.525,14.1 C12.871,14.1 14.69,15.919 14.69,18.18 C14.69,20.441 12.871,22.26 10.525,22.26 L8.74,22.26 L8.74,26 L6.02,26 L6.02,14.1 L10.525,14.1 Z M10.525,19.71 C11.358,19.71 11.97,19.047 11.97,18.18 C11.97,17.313 11.358,16.65 10.525,16.65 L8.74,16.65 L8.74,19.71 L10.525,19.71 Z M22.306,26 L20.062,22.09 L18.77,22.09 L18.77,26 L16.05,26 L16.05,14.1 L20.81,14.1 C23.071,14.1 24.89,15.919 24.89,18.18 C24.89,19.642 24.006,20.968 22.697,21.631 L25.23,26 L22.306,26 Z M18.77,16.65 L18.77,19.71 L20.81,19.71 C21.558,19.71 22.17,19.047 22.17,18.18 C22.17,17.313 21.558,16.65 20.81,16.65 L18.77,16.65 Z M26.505,14.1 L26.505,26 L29.225,26 L29.225,14.1 L26.505,14.1 Z M34.121,26 L37.589,26 L41.465,14.1 L38.49,14.1 L35.855,22.855 L33.22,14.1 L30.245,14.1 L34.121,26 Z M50.05,26 L49.455,24.13 L45.035,24.13 L44.44,26 L41.465,26 L45.511,14.1 L48.979,14.1 L53.025,26 L50.05,26 Z M45.851,21.58 L48.639,21.58 L47.245,17.211 L45.851,21.58 Z M62.035,14.1 L53.195,14.1 L53.195,16.718 L56.255,16.718 L56.255,26 L58.975,26 L58.975,16.718 L62.035,16.718 L62.035,14.1 Z M65.945,23.382 L65.945,21.274 L70.195,21.274 L70.195,18.69 L65.945,18.69 L65.945,16.718 L70.62,16.718 L70.62,14.1 L63.225,14.1 L63.225,26 L70.705,26 L70.705,23.382 L65.945,23.382 Z" id="PRIVATE" fill="#FFFFFF"></path>
                <path d="M13.2734375,48.734375 L7.8359375,48.734375 L7.8359375,38.7265625 L6.4296875,38.7265625 L6.4296875,50 L13.2734375,50 L13.2734375,48.734375 Z M22.53125,50 L22.359375,49.5117188 C22.2447911,49.1861963 22.113282,48.8112 21.9648438,48.3867188 C21.8164055,47.9622375 21.6848964,47.5872412 21.5703125,47.2617188 L21.3984375,46.7734375 L16.9140625,46.7734375 L15.78125,50 L14.3046875,50 L18.4609375,38.7265625 L19.8515625,38.7265625 L24.0078125,50 L22.53125,50 Z M19.09375,40.546875 L18.9140625,41.0546875 C18.7942702,41.3932309 18.6471363,41.8124975 18.4726562,42.3125 L17.9492188,43.8125 C17.7747387,44.3125025 17.6276048,44.7317691 17.5078125,45.0703125 L17.328125,45.578125 L20.984375,45.578125 L19.21875,40.546875 L19.09375,40.546875 Z M30.0703125,50 L25.671875,50 L25.671875,38.7265625 L29.984375,38.7265625 C31.0208385,38.7265625 31.8359345,38.9791641 32.4296875,39.484375 C33.0234405,39.9895859 33.3203125,40.6744748 33.3203125,41.5390625 C33.3203125,42.1223988 33.1315123,42.6484352 32.7539062,43.1171875 C32.3763002,43.5859398 31.9166694,43.8697912 31.375,43.96875 L31.375,44.09375 C32.1458372,44.1927088 32.7578102,44.4882788 33.2109375,44.9804688 C33.6640648,45.4726587 33.890625,46.0911421 33.890625,46.8359375 C33.890625,47.8255258 33.5533888,48.6002576 32.8789062,49.1601562 C32.2044237,49.7200549 31.2682352,50 30.0703125,50 Z M27.078125,39.96875 L27.078125,43.5859375 L29.328125,43.5859375 C30.1822959,43.5859375 30.8242166,43.4348973 31.2539062,43.1328125 C31.6835959,42.8307277 31.8984375,42.3802113 31.8984375,41.78125 C31.8984375,41.2083305 31.704429,40.7630224 31.3164062,40.4453125 C30.9283835,40.1276026 30.3854202,39.96875 29.6875,39.96875 L27.078125,39.96875 Z M27.078125,48.7578125 L29.859375,48.7578125 C30.7083376,48.7578125 31.3515603,48.5885434 31.7890625,48.25 C32.2265647,47.9114566 32.4453125,47.4166699 32.4453125,46.765625 C32.4453125,46.1145801 32.2174502,45.6236996 31.7617188,45.2929688 C31.3059873,44.9622379 30.6276087,44.796875 29.7265625,44.796875 L27.078125,44.796875 L27.078125,48.7578125 Z M42.859375,48.734375 L37.28125,48.734375 L37.28125,44.859375 L42.5703125,44.859375 L42.5703125,43.609375 L37.28125,43.609375 L37.28125,39.9921875 L42.859375,39.9921875 L42.859375,38.7265625 L35.875,38.7265625 L35.875,50 L42.859375,50 L42.859375,48.734375 Z M51.9375,48.734375 L46.5,48.734375 L46.5,38.7265625 L45.09375,38.7265625 L45.09375,50 L51.9375,50 L51.9375,48.734375 Z M53.328125,47.0546875 C53.401042,48.0286507 53.8190066,48.8072887 54.5820312,49.390625 C55.3450559,49.9739613 56.3229107,50.265625 57.515625,50.265625 C58.8072981,50.265625 59.8320275,49.9596385 60.5898438,49.3476562 C61.34766,48.735674 61.7265625,47.9114635 61.7265625,46.875 C61.7265625,46.0468709 61.4726588,45.3880233 60.9648438,44.8984375 C60.4570287,44.4088517 59.6197975,44.0182306 58.453125,43.7265625 L57.2734375,43.4140625 C56.497392,43.2161448 55.9414079,42.979168 55.6054688,42.703125 C55.2695296,42.427082 55.1015625,42.0677105 55.1015625,41.625 C55.1015625,41.0520805 55.3294248,40.5937517 55.7851562,40.25 C56.2408877,39.9062483 56.8437463,39.734375 57.59375,39.734375 C58.2968785,39.734375 58.8736957,39.8971338 59.3242188,40.2226562 C59.7747418,40.5481787 60.0494787,40.9999971 60.1484375,41.578125 L61.5625,41.578125 C61.505208,40.6666621 61.1093787,39.9192738 60.375,39.3359375 C59.6406213,38.7526012 58.7291721,38.4609375 57.640625,38.4609375 C56.4479107,38.4609375 55.4856807,38.7565075 54.7539062,39.3476562 C54.0221318,39.938805 53.65625,40.7135369 53.65625,41.671875 C53.65625,42.4739623 53.8880185,43.115883 54.3515625,43.5976562 C54.8151065,44.0794295 55.5572866,44.4505195 56.578125,44.7109375 L58.0234375,45.0859375 C58.799483,45.2786468 59.3697898,45.5338526 59.734375,45.8515625 C60.0989602,46.1692724 60.28125,46.5677059 60.28125,47.046875 C60.28125,47.6041695 60.0325546,48.0664044 59.5351562,48.4335938 C59.0377579,48.8007831 58.408858,48.984375 57.6484375,48.984375 C56.8463502,48.984375 56.1848984,48.8098976 55.6640625,48.4609375 C55.1432266,48.1119774 54.8385421,47.6432321 54.75,47.0546875 L53.328125,47.0546875 Z" id="LABELS" fill="#2B2A29" opacity="0.849999964"></path>
                <path d="M11.4648438,64 L11.4648438,56.9541016 L5.94238281,56.9541016 L5.94238281,64 L6.82617188,64 L6.82617188,57.7548828 L10.5957031,57.7548828 L10.5957031,64 L11.4648438,64 Z M17.8417969,63.2089844 L14.3554688,63.2089844 L14.3554688,60.7871094 L17.6611328,60.7871094 L17.6611328,60.0058594 L14.3554688,60.0058594 L14.3554688,57.7451172 L17.8417969,57.7451172 L17.8417969,56.9541016 L13.4765625,56.9541016 L13.4765625,64 L17.8417969,64 L17.8417969,63.2089844 Z M19.6484375,56.9541016 L22.3095703,56.9541016 C22.9768914,56.9541016 23.5196919,57.1665018 23.9379883,57.5913086 C24.3562846,58.0161154 24.5654297,58.5637987 24.5654297,59.234375 C24.5654297,59.8919304 24.3530295,60.4314758 23.9282227,60.8530273 C23.5034158,61.2745789 22.9606153,61.4853516 22.2998047,61.4853516 L20.5273438,61.4853516 L20.5273438,64 L19.6484375,64 L19.6484375,56.9541016 Z M20.5273438,57.7353516 L20.5273438,60.7041016 L22.0800781,60.7041016 C22.5813827,60.7041016 22.9703762,60.5755221 23.2470703,60.3183594 C23.5237644,60.0611966 23.6621094,59.6998721 23.6621094,59.234375 C23.6621094,58.7493465 23.5262058,58.3782565 23.2543945,58.1210938 C22.9825833,57.863931 22.5911484,57.7353516 22.0800781,57.7353516 L20.5273438,57.7353516 Z M30.5810547,63.2089844 L27.0947266,63.2089844 L27.0947266,60.7871094 L30.4003906,60.7871094 L30.4003906,60.0058594 L27.0947266,60.0058594 L27.0947266,57.7451172 L30.5810547,57.7451172 L30.5810547,56.9541016 L26.2158203,56.9541016 L26.2158203,64 L30.5810547,64 L30.5810547,63.2089844 Z M33.4716797,60.7919922 L34.4628906,60.7919922 C34.9967475,60.7919922 35.4085272,60.9067371 35.6982422,61.1362305 C35.9879572,61.3657238 36.1328125,61.6790345 36.1328125,62.0761719 C36.1328125,62.4570332 35.9838882,62.7703438 35.6860352,63.0161133 C35.3881821,63.2618827 34.9918645,63.3847656 34.4970703,63.3847656 C34.0087866,63.3847656 33.6100276,63.2732759 33.3007812,63.050293 C32.9915349,62.8273101 32.817383,62.5319029 32.7783203,62.1640625 L31.9287109,62.1640625 C31.9612632,62.7630238 32.2127255,63.2464174 32.6831055,63.6142578 C33.1534854,63.9820982 33.7613895,64.1660156 34.5068359,64.1660156 C35.2164749,64.1660156 35.8154272,63.9666361 36.3037109,63.5678711 C36.7919946,63.1691061 37.0361328,62.6800159 37.0361328,62.1005859 C37.0361328,61.5960261 36.8880223,61.1923843 36.5917969,60.8896484 C36.2955714,60.5869125 35.9228538,60.4127606 35.4736328,60.3671875 L35.4736328,60.2890625 C35.8512389,60.194661 36.1555978,59.9977229 36.3867188,59.6982422 C36.6178397,59.3987615 36.7333984,59.0569681 36.7333984,58.6728516 C36.7333984,58.1227186 36.521812,57.671063 36.0986328,57.3178711 C35.6754536,56.9646792 35.1334668,56.7880859 34.4726562,56.7880859 C33.772783,56.7880859 33.2088238,56.9638654 32.7807617,57.3154297 C32.3526997,57.6669939 32.1158856,58.14876 32.0703125,58.7607422 L32.9248047,58.7607422 C32.9606122,58.3863914 33.1136054,58.0942393 33.3837891,57.8842773 C33.6539727,57.6743154 34.0055317,57.5693359 34.4384766,57.5693359 C34.8844423,57.5693359 35.229491,57.6775705 35.4736328,57.894043 C35.7177747,58.1105154 35.8398438,58.3961571 35.8398438,58.7509766 C35.8398438,59.1188169 35.7080091,59.4207345 35.4443359,59.6567383 C35.1806627,59.8927421 34.8404969,60.0107422 34.4238281,60.0107422 L33.4716797,60.0107422 L33.4716797,60.7919922 Z M43.2177734,64 L43.1103516,63.6948242 C43.0387366,63.4913727 42.9565434,63.257 42.8637695,62.9916992 C42.7709956,62.7263984 42.6888024,62.4920258 42.6171875,62.2885742 L42.5097656,61.9833984 L39.7070312,61.9833984 L38.9990234,64 L38.0761719,64 L40.6738281,56.9541016 L41.5429688,56.9541016 L44.140625,64 L43.2177734,64 Z M41.0693359,58.0917969 L40.9570312,58.4091797 C40.8821611,58.6207693 40.7902024,58.8828109 40.6811523,59.1953125 L40.3540039,60.1328125 C40.2449539,60.4453141 40.1529952,60.7073557 40.078125,60.9189453 L39.9658203,61.2363281 L42.2509766,61.2363281 L41.1474609,58.0917969 L41.0693359,58.0917969 Z M46.4746094,64 L46.4746094,57.7548828 L49.7705078,57.7548828 L49.7705078,56.9541016 L45.5908203,56.9541016 L45.5908203,64 L46.4746094,64 Z M51.3720703,56.9541016 L54.0332031,56.9541016 C54.7005242,56.9541016 55.2433247,57.1665018 55.6616211,57.5913086 C56.0799175,58.0161154 56.2890625,58.5637987 56.2890625,59.234375 C56.2890625,59.8919304 56.0766623,60.4314758 55.6518555,60.8530273 C55.2270487,61.2745789 54.6842481,61.4853516 54.0234375,61.4853516 L52.2509766,61.4853516 L52.2509766,64 L51.3720703,64 L51.3720703,56.9541016 Z M52.2509766,57.7353516 L52.2509766,60.7041016 L53.8037109,60.7041016 C54.3050155,60.7041016 54.694009,60.5755221 54.9707031,60.3183594 C55.2473972,60.0611966 55.3857422,59.6998721 55.3857422,59.234375 C55.3857422,58.7493465 55.2498386,58.3782565 54.9780273,58.1210938 C54.7062161,57.863931 54.3147812,57.7353516 53.8037109,57.7353516 L52.2509766,57.7353516 Z M58.6328125,64.0488281 C59.2252634,64.0488281 59.676919,63.871421 59.987793,63.5166016 C60.2986669,63.1617821 60.5973293,62.6507195 60.8837891,61.9833984 L63.0419922,56.9541016 L62.1289062,56.9541016 L60.2832031,61.5195312 L60.2050781,61.5195312 L58.3154297,56.9541016 L57.3779297,56.9541016 L59.7851562,62.4960938 C59.6451816,62.7532565 59.4840504,62.9404291 59.3017578,63.0576172 C59.1194652,63.1748053 58.8964857,63.2333984 58.6328125,63.2333984 C58.5286453,63.2333984 58.4448245,63.2285157 58.3813477,63.21875 C58.3178708,63.2089843 58.2714845,63.2008464 58.2421875,63.1943359 L58.2421875,63.9853516 C58.2714845,64.0016277 58.3194984,64.016276 58.3862305,64.0292969 C58.4529626,64.0423178 58.5351558,64.0488281 58.6328125,64.0488281 Z M65.5761719,60.7919922 L66.5673828,60.7919922 C67.1012396,60.7919922 67.5130194,60.9067371 67.8027344,61.1362305 C68.0924494,61.3657238 68.2373047,61.6790345 68.2373047,62.0761719 C68.2373047,62.4570332 68.0883804,62.7703438 67.7905273,63.0161133 C67.4926743,63.2618827 67.0963566,63.3847656 66.6015625,63.3847656 C66.1132788,63.3847656 65.7145198,63.2732759 65.4052734,63.050293 C65.0960271,62.8273101 64.9218752,62.5319029 64.8828125,62.1640625 L64.0332031,62.1640625 C64.0657554,62.7630238 64.3172177,63.2464174 64.7875977,63.6142578 C65.2579776,63.9820982 65.8658817,64.1660156 66.6113281,64.1660156 C67.3209671,64.1660156 67.9199194,63.9666361 68.4082031,63.5678711 C68.8964868,63.1691061 69.140625,62.6800159 69.140625,62.1005859 C69.140625,61.5960261 68.9925145,61.1923843 68.6962891,60.8896484 C68.4000636,60.5869125 68.027346,60.4127606 67.578125,60.3671875 L67.578125,60.2890625 C67.9557311,60.194661 68.26009,59.9977229 68.4912109,59.6982422 C68.7223319,59.3987615 68.8378906,59.0569681 68.8378906,58.6728516 C68.8378906,58.1227186 68.6263042,57.671063 68.203125,57.3178711 C67.7799458,56.9646792 67.237959,56.7880859 66.5771484,56.7880859 C65.8772751,56.7880859 65.3133159,56.9638654 64.8852539,57.3154297 C64.4571919,57.6669939 64.2203778,58.14876 64.1748047,58.7607422 L65.0292969,58.7607422 C65.0651043,58.3863914 65.2180976,58.0942393 65.4882812,57.8842773 C65.7584649,57.6743154 66.1100239,57.5693359 66.5429688,57.5693359 C66.9889345,57.5693359 67.3339832,57.6775705 67.578125,57.894043 C67.8222668,58.1105154 67.9443359,58.3961571 67.9443359,58.7509766 C67.9443359,59.1188169 67.8125013,59.4207345 67.5488281,59.6567383 C67.2851549,59.8927421 66.9449891,60.0107422 66.5283203,60.0107422 L65.5761719,60.0107422 L65.5761719,60.7919922 Z M71.6210938,60.0498047 L71.6210938,56.9541016 L70.7421875,56.9541016 L70.7421875,64 L71.6210938,64 L71.6210938,60.7529297 L71.8261719,60.7529297 L75.0097656,64 L76.171875,64 L72.5830078,60.3476562 L75.8886719,56.9541016 L74.7851562,56.9541016 L71.8261719,60.0498047 L71.6210938,60.0498047 Z M82.1484375,64 L82.0410156,63.6948242 C81.9694007,63.4913727 81.8872075,63.257 81.7944336,62.9916992 C81.7016597,62.7263984 81.6194665,62.4920258 81.5478516,62.2885742 L81.4404297,61.9833984 L78.6376953,61.9833984 L77.9296875,64 L77.0068359,64 L79.6044922,56.9541016 L80.4736328,56.9541016 L83.0712891,64 L82.1484375,64 Z M80,58.0917969 L79.8876953,58.4091797 C79.8128251,58.6207693 79.7208664,58.8828109 79.6118164,59.1953125 L79.284668,60.1328125 C79.1756179,60.4453141 79.0836592,60.7073557 79.0087891,60.9189453 L78.8964844,61.2363281 L81.1816406,61.2363281 L80.078125,58.0917969 L80,58.0917969 Z" id="ПЕРЕЗАГРУЗКА" fill="#7DAD52"></path>
            </g>
        </g>
    </g>
</svg>