<?xml version="1.0" encoding="UTF-8"?>
<svg width="90px" height="85px" viewBox="0 0 90 85" version="1.1" xmlns="http://www.w3.org/2000/svg" xmlns:xlink="http://www.w3.org/1999/xlink">
    <!-- Generator: Sketch 47.1 (45422) - http://www.bohemiancoding.com/sketch -->
    <title>retail-business-ural</title>
    <desc>Created with Sketch.</desc>
    <defs></defs>
    <g id="Главная" stroke="none" stroke-width="1" fill="none" fill-rule="evenodd">
        <g id="Group-34" transform="translate(0.000000, -105.000000)">
            <g id="retail-business-ural" transform="translate(0.000000, 105.000000)">
                <rect id="Rectangle-4-Copy-2" fill="#FFFFFF" x="0" y="0" width="90" height="85" rx="1.69811321"></rect>
                <rect id="Rectangle-11" fill="#85233D" x="-8.57980353e-13" y="10" width="90" height="21"></rect>
                <path d="M12.276,26 L10.032,22.09 L8.74,22.09 L8.74,26 L6.02,26 L6.02,14.1 L10.78,14.1 C13.041,14.1 14.86,15.919 14.86,18.18 C14.86,19.642 13.976,20.968 12.667,21.631 L15.2,26 L12.276,26 Z M8.74,16.65 L8.74,19.71 L10.78,19.71 C11.528,19.71 12.14,19.047 12.14,18.18 C12.14,17.313 11.528,16.65 10.78,16.65 L8.74,16.65 Z M19.195,23.382 L19.195,21.274 L23.445,21.274 L23.445,18.69 L19.195,18.69 L19.195,16.718 L23.87,16.718 L23.87,14.1 L16.475,14.1 L16.475,26 L23.955,26 L23.955,23.382 L19.195,23.382 Z M33.475,14.1 L24.635,14.1 L24.635,16.718 L27.695,16.718 L27.695,26 L30.415,26 L30.415,16.718 L33.475,16.718 L33.475,14.1 Z M42.23,26 L41.635,24.13 L37.215,24.13 L36.62,26 L33.645,26 L37.691,14.1 L41.159,14.1 L45.205,26 L42.23,26 Z M38.031,21.58 L40.819,21.58 L39.425,17.211 L38.031,21.58 Z M46.225,14.1 L46.225,26 L48.945,26 L48.945,14.1 L46.225,14.1 Z M53.705,23.382 L53.705,14.1 L50.985,14.1 L50.985,26 L57.955,26 L57.955,23.382 L53.705,23.382 Z" id="RETAIL" fill="#FFFFFF"></path>
                <path d="M10.828125,50 L6.4296875,50 L6.4296875,38.7265625 L10.7421875,38.7265625 C11.778651,38.7265625 12.593747,38.9791641 13.1875,39.484375 C13.781253,39.9895859 14.078125,40.6744748 14.078125,41.5390625 C14.078125,42.1223988 13.8893248,42.6484352 13.5117188,43.1171875 C13.1341127,43.5859398 12.6744819,43.8697912 12.1328125,43.96875 L12.1328125,44.09375 C12.9036497,44.1927088 13.5156227,44.4882788 13.96875,44.9804688 C14.4218773,45.4726587 14.6484375,46.0911421 14.6484375,46.8359375 C14.6484375,47.8255258 14.3112013,48.6002576 13.6367188,49.1601562 C12.9622362,49.7200549 12.0260477,50 10.828125,50 Z M7.8359375,39.96875 L7.8359375,43.5859375 L10.0859375,43.5859375 C10.9401084,43.5859375 11.5820291,43.4348973 12.0117188,43.1328125 C12.4414084,42.8307277 12.65625,42.3802113 12.65625,41.78125 C12.65625,41.2083305 12.4622415,40.7630224 12.0742188,40.4453125 C11.686196,40.1276026 11.1432327,39.96875 10.4453125,39.96875 L7.8359375,39.96875 Z M7.8359375,48.7578125 L10.6171875,48.7578125 C11.4661501,48.7578125 12.1093728,48.5885434 12.546875,48.25 C12.9843772,47.9114566 13.203125,47.4166699 13.203125,46.765625 C13.203125,46.1145801 12.9752627,45.6236996 12.5195312,45.2929688 C12.0637998,44.9622379 11.3854212,44.796875 10.484375,44.796875 L7.8359375,44.796875 L7.8359375,48.7578125 Z M18.078125,38.7265625 L16.671875,38.7265625 L16.671875,46.125 C16.671875,47.328131 17.0690064,48.3190065 17.8632812,49.0976562 C18.6575561,49.876306 19.7525972,50.265625 21.1484375,50.265625 C22.5494862,50.265625 23.6458294,49.876306 24.4375,49.0976562 C25.2291706,48.3190065 25.625,47.328131 25.625,46.125 L25.625,38.7265625 L24.21875,38.7265625 L24.21875,46.03125 C24.21875,46.8802126 23.9518256,47.5820285 23.4179688,48.1367188 C22.8841119,48.691409 22.1276091,48.96875 21.1484375,48.96875 C20.1744743,48.96875 19.4192735,48.691409 18.8828125,48.1367188 C18.3463515,47.5820285 18.078125,46.8802126 18.078125,46.03125 L18.078125,38.7265625 Z M27.6875,47.0546875 C27.760417,48.0286507 28.1783816,48.8072887 28.9414062,49.390625 C29.7044309,49.9739613 30.6822857,50.265625 31.875,50.265625 C33.1666731,50.265625 34.1914025,49.9596385 34.9492188,49.3476562 C35.707035,48.735674 36.0859375,47.9114635 36.0859375,46.875 C36.0859375,46.0468709 35.8320338,45.3880233 35.3242188,44.8984375 C34.8164037,44.4088517 33.9791725,44.0182306 32.8125,43.7265625 L31.6328125,43.4140625 C30.856767,43.2161448 30.3007829,42.979168 29.9648438,42.703125 C29.6289046,42.427082 29.4609375,42.0677105 29.4609375,41.625 C29.4609375,41.0520805 29.6887998,40.5937517 30.1445312,40.25 C30.6002627,39.9062483 31.2031213,39.734375 31.953125,39.734375 C32.6562535,39.734375 33.2330707,39.8971338 33.6835938,40.2226562 C34.1341168,40.5481787 34.4088537,40.9999971 34.5078125,41.578125 L35.921875,41.578125 C35.864583,40.6666621 35.4687537,39.9192738 34.734375,39.3359375 C33.9999963,38.7526012 33.0885471,38.4609375 32,38.4609375 C30.8072857,38.4609375 29.8450557,38.7565075 29.1132812,39.3476562 C28.3815068,39.938805 28.015625,40.7135369 28.015625,41.671875 C28.015625,42.4739623 28.2473935,43.115883 28.7109375,43.5976562 C29.1744815,44.0794295 29.9166616,44.4505195 30.9375,44.7109375 L32.3828125,45.0859375 C33.158858,45.2786468 33.7291648,45.5338526 34.09375,45.8515625 C34.4583352,46.1692724 34.640625,46.5677059 34.640625,47.046875 C34.640625,47.6041695 34.3919296,48.0664044 33.8945312,48.4335938 C33.3971329,48.8007831 32.768233,48.984375 32.0078125,48.984375 C31.2057252,48.984375 30.5442734,48.8098976 30.0234375,48.4609375 C29.5026016,48.1119774 29.1979171,47.6432321 29.109375,47.0546875 L27.6875,47.0546875 Z M39.515625,50 L39.515625,38.7265625 L38.109375,38.7265625 L38.109375,50 L39.515625,50 Z M43.46875,50 L43.46875,41.2578125 L43.59375,41.2578125 L49.7109375,50 L51.078125,50 L51.078125,38.7265625 L49.6875,38.7265625 L49.6875,47.5 L49.5625,47.5 L43.4453125,38.7265625 L42.078125,38.7265625 L42.078125,50 L43.46875,50 Z M60.625,48.734375 L55.046875,48.734375 L55.046875,44.859375 L60.3359375,44.859375 L60.3359375,43.609375 L55.046875,43.609375 L55.046875,39.9921875 L60.625,39.9921875 L60.625,38.7265625 L53.640625,38.7265625 L53.640625,50 L60.625,50 L60.625,48.734375 Z M62.3203125,47.0546875 C62.3932295,48.0286507 62.8111941,48.8072887 63.5742188,49.390625 C64.3372434,49.9739613 65.3150982,50.265625 66.5078125,50.265625 C67.7994856,50.265625 68.824215,49.9596385 69.5820312,49.3476562 C70.3398475,48.735674 70.71875,47.9114635 70.71875,46.875 C70.71875,46.0468709 70.4648463,45.3880233 69.9570312,44.8984375 C69.4492162,44.4088517 68.611985,44.0182306 67.4453125,43.7265625 L66.265625,43.4140625 C65.4895795,43.2161448 64.9335954,42.979168 64.5976562,42.703125 C64.2617171,42.427082 64.09375,42.0677105 64.09375,41.625 C64.09375,41.0520805 64.3216123,40.5937517 64.7773438,40.25 C65.2330752,39.9062483 65.8359337,39.734375 66.5859375,39.734375 C67.289066,39.734375 67.8658832,39.8971338 68.3164062,40.2226562 C68.7669293,40.5481787 69.0416662,40.9999971 69.140625,41.578125 L70.5546875,41.578125 C70.4973955,40.6666621 70.1015662,39.9192738 69.3671875,39.3359375 C68.6328088,38.7526012 67.7213596,38.4609375 66.6328125,38.4609375 C65.4400982,38.4609375 64.4778682,38.7565075 63.7460938,39.3476562 C63.0143193,39.938805 62.6484375,40.7135369 62.6484375,41.671875 C62.6484375,42.4739623 62.880206,43.115883 63.34375,43.5976562 C63.807294,44.0794295 64.5494741,44.4505195 65.5703125,44.7109375 L67.015625,45.0859375 C67.7916705,45.2786468 68.3619773,45.5338526 68.7265625,45.8515625 C69.0911477,46.1692724 69.2734375,46.5677059 69.2734375,47.046875 C69.2734375,47.6041695 69.0247421,48.0664044 68.5273438,48.4335938 C68.0299454,48.8007831 67.4010455,48.984375 66.640625,48.984375 C65.8385377,48.984375 65.1770859,48.8098976 64.65625,48.4609375 C64.1354141,48.1119774 63.8307296,47.6432321 63.7421875,47.0546875 L62.3203125,47.0546875 Z M72.203125,47.0546875 C72.276042,48.0286507 72.6940066,48.8072887 73.4570312,49.390625 C74.2200559,49.9739613 75.1979107,50.265625 76.390625,50.265625 C77.6822981,50.265625 78.7070275,49.9596385 79.4648438,49.3476562 C80.22266,48.735674 80.6015625,47.9114635 80.6015625,46.875 C80.6015625,46.0468709 80.3476588,45.3880233 79.8398438,44.8984375 C79.3320287,44.4088517 78.4947975,44.0182306 77.328125,43.7265625 L76.1484375,43.4140625 C75.372392,43.2161448 74.8164079,42.979168 74.4804688,42.703125 C74.1445296,42.427082 73.9765625,42.0677105 73.9765625,41.625 C73.9765625,41.0520805 74.2044248,40.5937517 74.6601562,40.25 C75.1158877,39.9062483 75.7187463,39.734375 76.46875,39.734375 C77.1718785,39.734375 77.7486957,39.8971338 78.1992188,40.2226562 C78.6497418,40.5481787 78.9244787,40.9999971 79.0234375,41.578125 L80.4375,41.578125 C80.380208,40.6666621 79.9843787,39.9192738 79.25,39.3359375 C78.5156213,38.7526012 77.6041721,38.4609375 76.515625,38.4609375 C75.3229107,38.4609375 74.3606807,38.7565075 73.6289062,39.3476562 C72.8971318,39.938805 72.53125,40.7135369 72.53125,41.671875 C72.53125,42.4739623 72.7630185,43.115883 73.2265625,43.5976562 C73.6901065,44.0794295 74.4322866,44.4505195 75.453125,44.7109375 L76.8984375,45.0859375 C77.674483,45.2786468 78.2447898,45.5338526 78.609375,45.8515625 C78.9739602,46.1692724 79.15625,46.5677059 79.15625,47.046875 C79.15625,47.6041695 78.9075546,48.0664044 78.4101562,48.4335938 C77.9127579,48.8007831 77.283858,48.984375 76.5234375,48.984375 C75.7213502,48.984375 75.0598984,48.8098976 74.5390625,48.4609375 C74.0182266,48.1119774 73.7135421,47.6432321 73.625,47.0546875 L72.203125,47.0546875 Z M7.875,57.7265625 L6.46875,57.7265625 L6.46875,65.125 C6.46875,66.328131 6.86588145,67.3190065 7.66015625,68.0976562 C8.45443105,68.876306 9.54947219,69.265625 10.9453125,69.265625 C12.3463612,69.265625 13.4427044,68.876306 14.234375,68.0976562 C15.0260456,67.3190065 15.421875,66.328131 15.421875,65.125 L15.421875,57.7265625 L14.015625,57.7265625 L14.015625,65.03125 C14.015625,65.8802126 13.7487006,66.5820285 13.2148438,67.1367188 C12.6809869,67.691409 11.9244841,67.96875 10.9453125,67.96875 C9.9713493,67.96875 9.21614852,67.691409 8.6796875,67.1367188 C8.14322648,66.5820285 7.875,65.8802126 7.875,65.03125 L7.875,57.7265625 Z M19.4296875,58.9765625 L19.4296875,63.2890625 L22.203125,63.2890625 C22.927087,63.2890625 23.4856751,63.1028664 23.8789062,62.7304688 C24.2721374,62.3580711 24.46875,61.8255243 24.46875,61.1328125 C24.46875,60.4557258 24.2630229,59.9270852 23.8515625,59.546875 C23.4401021,59.1666648 22.8697953,58.9765625 22.140625,58.9765625 L19.4296875,58.9765625 Z M19.4296875,64.5390625 L19.4296875,69 L18.0234375,69 L18.0234375,57.7265625 L22.328125,57.7265625 C23.4166721,57.7265625 24.2877571,58.032549 24.9414062,58.6445312 C25.5950554,59.2565135 25.921875,60.0703074 25.921875,61.0859375 C25.921875,61.8723998 25.7213562,62.5520805 25.3203125,63.125 C24.9192688,63.6979195 24.3645869,64.096353 23.65625,64.3203125 L26.265625,69 L24.6171875,69 L22.203125,64.5390625 L19.4296875,64.5390625 Z M35.4921875,69 L35.3203125,68.5117188 C35.2057286,68.1861963 35.0742195,67.8112 34.9257812,67.3867188 C34.777343,66.9622375 34.6458339,66.5872412 34.53125,66.2617188 L34.359375,65.7734375 L29.875,65.7734375 L28.7421875,69 L27.265625,69 L31.421875,57.7265625 L32.8125,57.7265625 L36.96875,69 L35.4921875,69 Z M32.0546875,59.546875 L31.875,60.0546875 C31.7552077,60.3932309 31.6080738,60.8124975 31.4335938,61.3125 L30.9101562,62.8125 C30.7356762,63.3125025 30.5885423,63.7317691 30.46875,64.0703125 L30.2890625,64.578125 L33.9453125,64.578125 L32.1796875,59.546875 L32.0546875,59.546875 Z M45.4765625,67.734375 L40.0390625,67.734375 L40.0390625,57.7265625 L38.6328125,57.7265625 L38.6328125,69 L45.4765625,69 L45.4765625,67.734375 Z" id="BUSINESS-URAL" fill="#2B2A29" opacity="0.849999964"></path>
            </g>
        </g>
    </g>
</svg>