<?xml version="1.0" encoding="UTF-8"?>
<svg width="90px" height="85px" viewBox="0 0 90 85" version="1.1" xmlns="http://www.w3.org/2000/svg" xmlns:xlink="http://www.w3.org/1999/xlink">
    <!-- Generator: Sketch 47.1 (45422) - http://www.bohemiancoding.com/sketch -->
    <title>russian-export-day</title>
    <desc>Created with Sketch.</desc>
    <defs></defs>
    <g id="Главная" stroke="none" stroke-width="1" fill="none" fill-rule="evenodd">
        <g id="Group-34" transform="translate(-330.000000, 0.000000)">
            <g id="russian-export-day" transform="translate(330.000000, 0.000000)">
                <rect id="Rectangle-4-Copy-2" fill="#FFFFFF" x="0" y="0" width="90" height="85" rx="1.69811321"></rect>
                <rect id="Rectangle-11" fill="#243689" x="-8.5975671e-13" y="10" width="90" height="21"></rect>
                <path d="M12.276,26 L10.032,22.09 L8.74,22.09 L8.74,26 L6.02,26 L6.02,14.1 L10.78,14.1 C13.041,14.1 14.86,15.919 14.86,18.18 C14.86,19.642 13.976,20.968 12.667,21.631 L15.2,26 L12.276,26 Z M8.74,16.65 L8.74,19.71 L10.78,19.71 C11.528,19.71 12.14,19.047 12.14,18.18 C12.14,17.313 11.528,16.65 10.78,16.65 L8.74,16.65 Z M20.98,26.238 C23.598,26.238 25.57,24.708 25.57,22.158 L25.57,14.1 L22.85,14.1 L22.85,21.92 C22.85,22.821 22.425,23.586 20.98,23.586 C19.535,23.586 19.11,22.821 19.11,21.92 L19.11,14.1 L16.39,14.1 L16.39,22.158 C16.39,24.708 18.362,26.238 20.98,26.238 Z M31.69,26.238 C34.274,26.238 36.11,24.878 36.11,22.583 C36.11,20.067 34.087,19.438 32.285,18.894 C30.432,18.333 30.143,17.959 30.143,17.415 C30.143,16.939 30.568,16.514 31.418,16.514 C32.506,16.514 33.067,17.041 33.475,17.891 L35.77,16.548 C34.903,14.797 33.373,13.862 31.418,13.862 C29.361,13.862 27.423,15.188 27.423,17.483 C27.423,19.761 29.157,20.611 30.925,21.104 C32.71,21.597 33.39,21.886 33.39,22.617 C33.39,23.076 33.067,23.586 31.775,23.586 C30.432,23.586 29.701,22.923 29.276,21.937 L26.93,23.297 C27.593,25.048 29.191,26.238 31.69,26.238 Z M41.635,26.238 C44.219,26.238 46.055,24.878 46.055,22.583 C46.055,20.067 44.032,19.438 42.23,18.894 C40.377,18.333 40.088,17.959 40.088,17.415 C40.088,16.939 40.513,16.514 41.363,16.514 C42.451,16.514 43.012,17.041 43.42,17.891 L45.715,16.548 C44.848,14.797 43.318,13.862 41.363,13.862 C39.306,13.862 37.368,15.188 37.368,17.483 C37.368,19.761 39.102,20.611 40.87,21.104 C42.655,21.597 43.335,21.886 43.335,22.617 C43.335,23.076 43.012,23.586 41.72,23.586 C40.377,23.586 39.646,22.923 39.221,21.937 L36.875,23.297 C37.538,25.048 39.136,26.238 41.635,26.238 Z M47.415,14.1 L47.415,26 L50.135,26 L50.135,14.1 L47.415,14.1 Z M59.74,26 L59.145,24.13 L54.725,24.13 L54.13,26 L51.155,26 L55.201,14.1 L58.669,14.1 L62.715,26 L59.74,26 Z M55.541,21.58 L58.329,21.58 L56.935,17.211 L55.541,21.58 Z M70.365,14.1 L70.365,20.56 L65.775,14.1 L63.735,14.1 L63.735,26 L66.455,26 L66.455,19.54 L71.045,26 L73.085,26 L73.085,14.1 L70.365,14.1 Z" id="RUSSIAN" fill="#FFFFFF"></path>
                <path d="M13.4140625,48.734375 L7.8359375,48.734375 L7.8359375,44.859375 L13.125,44.859375 L13.125,43.609375 L7.8359375,43.609375 L7.8359375,39.9921875 L13.4140625,39.9921875 L13.4140625,38.7265625 L6.4296875,38.7265625 L6.4296875,50 L13.4140625,50 L13.4140625,48.734375 Z M14.9140625,50 L16.5078125,50 L19.515625,45.5546875 L19.640625,45.5546875 L22.59375,50 L24.28125,50 L20.4609375,44.390625 L24.3671875,38.7265625 L22.765625,38.7265625 L19.75,43.2109375 L19.625,43.2109375 L16.65625,38.7265625 L14.9609375,38.7265625 L18.7734375,44.328125 L18.3828125,44.9023438 C18.1223945,45.2851582 17.8007832,45.7578097 17.4179688,46.3203125 L16.2695312,48.0078125 C15.8867168,48.5703153 15.5651055,49.0429668 15.3046875,49.4257812 L14.9140625,50 Z M26.1953125,38.7265625 L30.453125,38.7265625 C31.5208387,38.7265625 32.3893196,39.0664029 33.0585938,39.7460938 C33.7278679,40.4257846 34.0625,41.302078 34.0625,42.375 C34.0625,43.4270886 33.7226596,44.2903612 33.0429688,44.9648438 C32.3632779,45.6393263 31.494797,45.9765625 30.4375,45.9765625 L27.6015625,45.9765625 L27.6015625,50 L26.1953125,50 L26.1953125,38.7265625 Z M27.6015625,39.9765625 L27.6015625,44.7265625 L30.0859375,44.7265625 C30.8880248,44.7265625 31.5104145,44.5208354 31.953125,44.109375 C32.3958355,43.6979146 32.6171875,43.1197954 32.6171875,42.375 C32.6171875,41.5989545 32.3997418,41.0052104 31.9648437,40.59375 C31.5299457,40.1822896 30.9036499,39.9765625 30.0859375,39.9765625 L27.6015625,39.9765625 Z M40.7890625,38.4609375 C42.3932372,38.4609375 43.6536412,38.9921822 44.5703125,40.0546875 C45.4869838,41.1171928 45.9453125,42.5520743 45.9453125,44.359375 C45.9453125,46.1614673 45.4882858,47.5963488 44.5742188,48.6640625 C43.6601517,49.7317762 42.3984455,50.265625 40.7890625,50.265625 C39.1744711,50.265625 37.9075567,49.7317762 36.9882812,48.6640625 C36.0690058,47.5963488 35.609375,46.1614673 35.609375,44.359375 C35.609375,42.5468659 36.0742141,41.1106824 37.0039062,40.0507812 C37.9335984,38.9908801 39.1953045,38.4609375 40.7890625,38.4609375 Z M40.7890625,39.7578125 C39.6432234,39.7578125 38.7343784,40.1718709 38.0625,41 C37.3906216,41.8281291 37.0546875,42.9479096 37.0546875,44.359375 C37.0546875,45.7552153 37.3841113,46.8723916 38.0429687,47.7109375 C38.7018262,48.5494834 39.6171816,48.96875 40.7890625,48.96875 C41.9453183,48.96875 42.8528613,48.5494834 43.5117187,47.7109375 C44.1705762,46.8723916 44.5,45.7552153 44.5,44.359375 C44.5,42.9479096 44.1692741,41.8281291 43.5078125,41 C42.8463509,40.1718709 41.9401099,39.7578125 40.7890625,39.7578125 Z M49.4765625,39.9765625 L49.4765625,44.2890625 L52.25,44.2890625 C52.973962,44.2890625 53.5325501,44.1028664 53.9257812,43.7304688 C54.3190124,43.3580711 54.515625,42.8255243 54.515625,42.1328125 C54.515625,41.4557258 54.3098979,40.9270852 53.8984375,40.546875 C53.4869771,40.1666648 52.9166703,39.9765625 52.1875,39.9765625 L49.4765625,39.9765625 Z M49.4765625,45.5390625 L49.4765625,50 L48.0703125,50 L48.0703125,38.7265625 L52.375,38.7265625 C53.4635471,38.7265625 54.3346321,39.032549 54.9882812,39.6445312 C55.6419304,40.2565135 55.96875,41.0703074 55.96875,42.0859375 C55.96875,42.8723998 55.7682312,43.5520805 55.3671875,44.125 C54.9661438,44.6979195 54.4114619,45.096353 53.703125,45.3203125 L56.3125,50 L54.6640625,50 L52.25,45.5390625 L49.4765625,45.5390625 Z M62.546875,50 L62.546875,39.9921875 L66.1796875,39.9921875 L66.1796875,38.7265625 L57.5078125,38.7265625 L57.5078125,39.9921875 L61.140625,39.9921875 L61.140625,50 L62.546875,50 Z M6.4296875,57.7265625 L10.296875,57.7265625 C11.9687584,57.7265625 13.2734328,58.2213492 14.2109375,59.2109375 C15.1484422,60.2005258 15.6171875,61.5833245 15.6171875,63.359375 C15.6171875,65.1354255 15.1497443,66.5195263 14.2148438,67.5117188 C13.2799432,68.5039112 11.9739667,69 10.296875,69 L6.4296875,69 L6.4296875,57.7265625 Z M7.8359375,58.9921875 L7.8359375,67.734375 L10.203125,67.734375 C11.463548,67.734375 12.4414028,67.3515663 13.1367188,66.5859375 C13.8320347,65.8203087 14.1796875,64.7500069 14.1796875,63.375 C14.1796875,61.9947848 13.8294306,60.9192747 13.1289062,60.1484375 C12.4283819,59.3776003 11.4531313,58.9921875 10.203125,58.9921875 L7.8359375,58.9921875 Z M25.0625,69 L24.890625,68.5117188 C24.7760411,68.1861963 24.644532,67.8112 24.4960937,67.3867188 C24.3476555,66.9622375 24.2161464,66.5872412 24.1015625,66.2617188 L23.9296875,65.7734375 L19.4453125,65.7734375 L18.3125,69 L16.8359375,69 L20.9921875,57.7265625 L22.3828125,57.7265625 L26.5390625,69 L25.0625,69 Z M21.625,59.546875 L21.4453125,60.0546875 C21.3255202,60.3932309 21.1783863,60.8124975 21.0039062,61.3125 L20.4804688,62.8125 C20.3059887,63.3125025 20.1588548,63.7317691 20.0390625,64.0703125 L19.859375,64.578125 L23.515625,64.578125 L21.75,59.546875 L21.625,59.546875 Z M32.71875,69 L32.71875,64.1484375 L36.71875,57.7265625 L35.1171875,57.7265625 L32.078125,62.734375 L31.953125,62.734375 L28.9140625,57.7265625 L27.3125,57.7265625 L31.3125,64.1484375 L31.3125,69 L32.71875,69 Z" id="EXPORT-DAY" fill="#2B2A29" opacity="0.849999964"></path>
            </g>
        </g>
    </g>
</svg>